<svg width="24" height="24" fill="none" xmlns="http://www.w3.org/2000/svg"><g clip-path="url(#clip0_1647_5991)" fill="#FE6776"><path d="M12 24C5.383 24 0 18.617 0 12S5.383 0 12 0c6.616 0 12 5.383 12 12s-5.384 12-12 12zm0-22.5C6.21 1.5 1.5 6.21 1.5 12S6.21 22.5 12 22.5 22.5 17.79 22.5 12 17.79 1.5 12 1.5z"/><path d="M12 21c-1.24 0-2.25-1.01-2.25-2.25S10.76 16.5 12 16.5s2.25 1.01 2.25 2.25S13.24 21 12 21zm0-3a.75.75 0 10.002 1.502A.75.75 0 0012 18zm0-2.25a2.252 2.252 0 01-2.25-2.199C9.679 12.97 9 7.48 9 6c0-1.654 1.346-3 3-3s3 1.346 3 3c0 1.479-.678 6.97-.75 7.551A2.252 2.252 0 0112 15.75zM12 4.5c-.827 0-1.5.673-1.5 1.5 0 1.437.737 7.347.744 7.407.004.03.006.062.006.093a.75.75 0 001.5 0c0-.031.002-.062.006-.093.007-.06.744-5.97.744-7.407 0-.827-.673-1.5-1.5-1.5z"/></g><defs><clipPath id="clip0_1647_5991"><path fill="#fff" d="M0 0h24v24H0z"/></clipPath></defs></svg>