<svg width="64" height="64" fill="none" xmlns="http://www.w3.org/2000/svg"><path d="M59.52 35.867l-1.658-6.63a1 1 0 00.794-.979v-1.069a4.214 4.214 0 00-4.21-4.209h-7.548v-2.204a2.073 2.073 0 00-2.071-2.071H30.79l8.53-3.412a1.002 1.002 0 10-.744-1.861l-6.985 2.793c2.129-1.365 4.234-2.868 5.036-3.919a4.672 4.672 0 00-.88-6.54 4.672 4.672 0 00-6.542.88c-1.14 1.495-2.645 5.696-3.618 8.657-.974-2.96-2.479-7.162-3.619-8.657a4.672 4.672 0 00-6.54-.88 4.672 4.672 0 00-.882 6.54c.802 1.051 2.907 2.554 5.036 3.92l-6.984-2.794a1.002 1.002 0 10-.745 1.86l8.53 3.413H6.346a2.073 2.073 0 00-2.07 2.07v18.172a1.002 1.002 0 002.004 0V20.776c0-.037.03-.067.066-.067h38.48c.038 0 .067.03.067.067v18.171a1.002 1.002 0 102.005 0v-1.136h11.827a3.279 3.279 0 013.113 2.272h-3.116c-.553 0-1.002.448-1.002 1.002v2.138a3.143 3.143 0 003.14 3.14h1.136v4.409h-2.62c-.861-2.486-3.224-4.276-5.998-4.276a6.356 6.356 0 00-5.998 4.276h-.483v-7.55a1.002 1.002 0 10-2.004 0v7.55h-20.79a6.356 6.356 0 00-5.999-4.276 6.356 6.356 0 00-5.997 4.276h-5.76a.067.067 0 01-.067-.067V48.5h4.342a1.002 1.002 0 100-2.004h-9.62a1.002 1.002 0 000 2.004h3.274v2.205c0 1.142.929 2.07 2.07 2.07h5.414l-.002.068a6.353 6.353 0 006.346 6.346c3.5 0 6.347-2.847 6.347-6.346l-.002-.067h22.584l-.002.066c0 3.5 2.847 6.347 6.347 6.347a6.353 6.353 0 006.346-6.346l-.002-.067h3.276c.553 0 1.002-.449 1.002-1.002v-10.69a5.286 5.286 0 00-4.48-5.217zM21.612 15.132c-3.952-2.456-5.125-3.586-5.472-4.041a2.666 2.666 0 01.503-3.732 2.65 2.65 0 011.611-.545 2.66 2.66 0 012.12 1.047c.97 1.271 2.488 5.55 3.49 8.632a110.59 110.59 0 01-2.252-1.36zm5.697 1.36c1.002-3.082 2.52-7.36 3.49-8.63a2.666 2.666 0 013.732-.503 2.666 2.666 0 01.502 3.732c-.347.455-1.52 1.585-5.472 4.041-.798.496-1.575.963-2.252 1.36zm19.589 8.492h7.549c1.215 0 2.204.99 2.204 2.205v.067h-9.753v-2.272zm0 10.823V29.26h8.904l1.637 6.547H46.898zM18.104 57.185a4.347 4.347 0 01-4.342-4.343 4.347 4.347 0 014.342-4.342 4.347 4.347 0 014.343 4.343 4.347 4.347 0 01-4.343 4.342zm35.274 0a4.347 4.347 0 01-4.343-4.343 4.347 4.347 0 014.343-4.342 4.347 4.347 0 014.342 4.343 4.347 4.347 0 01-4.342 4.342zm8.618-12.827H60.86c-.626 0-1.136-.51-1.136-1.136v-1.135h2.272v2.271z" fill="#785D4C"/><path d="M18.104 50.772a2.073 2.073 0 00-2.07 2.07c0 1.142.928 2.072 2.07 2.072a2.073 2.073 0 002.071-2.072 2.073 2.073 0 00-2.07-2.07zm35.274 0a2.073 2.073 0 00-2.071 2.07c0 1.142.929 2.072 2.07 2.072a2.073 2.073 0 002.072-2.072 2.073 2.073 0 00-2.071-2.07zM41.62 46.496H26.656a1.002 1.002 0 100 2.004H41.62a1.002 1.002 0 100-2.004zM15.967 42.22H3.14a1.002 1.002 0 000 2.005h12.827a1.002 1.002 0 100-2.005zm0-14.964H11.69c-.553 0-1.002.448-1.002 1.002v8.551a1.002 1.002 0 102.004 0v-3.273h2.205a1.002 1.002 0 000-2.005h-2.205V29.26h3.274a1.002 1.002 0 100-2.004zm7.886 6.749a3.674 3.674 0 001.667-3.075 3.679 3.679 0 00-3.674-3.674h-2.673c-.553 0-1.002.448-1.002 1.002v8.551a1.002 1.002 0 002.004 0v-2.205h1.669l1.84 2.76a1 1 0 101.667-1.11l-1.498-2.249zM21.845 32.6h-1.67v-3.34h1.67a1.671 1.671 0 010 3.34zM32 35.807h-3.273v-2.275a.73.73 0 00.066.004h2.138a1.002 1.002 0 100-2.005h-2.138c-.022 0-.044.002-.066.004V29.26H32a1.002 1.002 0 100-2.004h-4.276c-.553 0-1.002.448-1.002 1.002v8.551c0 .553.449 1.002 1.002 1.002H32a1.002 1.002 0 100-2.004zm7.482 0H36.21v-2.271h1.135a1.002 1.002 0 100-2.005H36.21V29.26h3.273a1.002 1.002 0 000-2.004h-4.275c-.554 0-1.002.448-1.002 1.002v8.551c0 .553.448 1.002 1.002 1.002h4.275a1.002 1.002 0 000-2.004z" fill="#785D4C"/></svg>