<svg width="24" height="24" fill="none" xmlns="http://www.w3.org/2000/svg"><path d="M19.27 3.692h-3.81V3A2.08 2.08 0 0013.385.923h-2.77A2.08 2.08 0 008.538 3v.692H4.731C3.776 3.692 3 4.47 3 5.423v2.423c0 .383.31.692.692.692h.379l.598 12.56a2.074 2.074 0 002.074 1.979h10.514c1.11 0 2.021-.869 2.074-1.978l.598-12.56h.379c.382 0 .692-.31.692-.693V5.423c0-.954-.776-1.73-1.73-1.73zM9.922 3c0-.382.31-.692.692-.692h2.77c.381 0 .692.31.692.692v.692H9.923V3zM4.385 5.423c0-.19.155-.346.346-.346h14.538c.191 0 .346.155.346.346v1.73H4.385v-1.73zm13.563 15.61a.691.691 0 01-.691.66H6.743a.691.691 0 01-.691-.66L5.457 8.538h13.086l-.595 12.495z" fill="#979797"/><path d="M12 20.308c.383 0 .693-.31.693-.693v-9a.692.692 0 00-1.384 0v9c0 .383.31.693.692.693zm3.462 0c.382 0 .692-.31.692-.693v-9a.692.692 0 10-1.384 0v9c0 .383.31.693.692.693zm-6.924 0c.382 0 .692-.31.692-.693v-9a.692.692 0 00-1.384 0v9c0 .383.31.693.692.693z" fill="#979797"/></svg>