<svg width="41" height="40" fill="none" xmlns="http://www.w3.org/2000/svg"><g clip-path="url(#clip0_537_3911)"><path fill-rule="evenodd" clip-rule="evenodd" d="M1.5 20.538h34.926a40.366 40.366 0 01-4.632-2.073c-3.59-1.706-7.42-3.97-10.128-6.68-.384-.346-.682-.952-.294-1.461a.826.826 0 01.8-.312c.292.05.518.234.67.45l.013.017.043.051c.038.043.09.1.155.169.131.138.313.32.544.54a31.79 31.79 0 001.933 1.678 42.43 42.43 0 006.808 4.46c2.948 1.4 5.758 2.428 7.662 3.013.327.1.536.418.495.756a.703.703 0 01-.495.756c-1.904.585-4.714 1.614-7.662 3.014a42.43 42.43 0 00-6.808 4.459 31.79 31.79 0 00-1.933 1.679 14.2 14.2 0 00-.544.539 5.531 5.531 0 00-.198.22l-.008.01-.006.007c-.151.216-.377.4-.668.45a.826.826 0 01-.8-.312c-.39-.51-.091-1.115.293-1.46 2.707-2.71 6.539-4.975 10.128-6.68a40.366 40.366 0 014.632-2.074H1.5v-1.216z" fill="#4F4A45"/></g><defs><clipPath id="clip0_537_3911"><path fill="#fff" transform="matrix(0 1 1 0 .5 0)" d="M0 0h40v40H0z"/></clipPath></defs></svg>