<svg width="60" height="60" fill="none" xmlns="http://www.w3.org/2000/svg"><path fill-rule="evenodd" clip-rule="evenodd" d="M28.74 2.04c-3.236.508-5.925 2.49-7.346 5.415-.872 1.796-.953 2.29-1.01 6.205l-.051 3.415h-2.668c-2.83 0-3.111.044-3.324.517-.171.38-.154.522.105.856l.227.293h3.93v1.037c0 1.737.393 2.586 1.443 3.116 1.008.509 2.14.35 2.922-.41.626-.609.721-.896.784-2.355l.056-1.333h12.384l.056 1.333c.063 1.46.158 1.746.784 2.354.766.745 1.884.912 2.899.433 1.043-.492 1.466-1.398 1.466-3.138v-1.037h15.014V55.39H3.589V18.74h2.392c2.358 0 2.395-.004 2.63-.257.294-.317.305-.745.029-1.091-.207-.26-.232-.263-2.712-.294-2.424-.031-2.519-.024-2.99.222-.268.14-.588.395-.712.567L2 18.202v37.727l.226.306c.124.17.362.41.529.536l.302.229h53.886l.303-.229c.166-.126.404-.367.528-.536L58 55.93V18.202l-.226-.314c-.124-.172-.442-.426-.708-.563l-.482-.25h-16.94v-2.752c0-4.053-.2-5.276-1.161-7.12-1.26-2.416-3.474-4.22-6.017-4.9-.86-.23-2.98-.38-3.726-.262zm3.616 1.977c2.096.681 3.819 2.173 4.757 4.118.744 1.542.802 1.925.859 5.636l.05 3.304H21.978l.052-3.304c.058-3.724.122-4.148.85-5.636 1.11-2.266 3.302-3.932 5.778-4.39.941-.175 2.729-.043 3.698.272zm-21.17 13.188c-.282.14-.432.5-.52 1.253-.187 1.582-1.73 3.06-3.198 3.06-.939 0-1.423.715-.92 1.361.172.223.355.298.87.359.908.107 1.837.58 2.391 1.218.514.592.903 1.522.903 2.16 0 .582.342 1.01.81 1.01.566 0 .745-.212.85-1.01.119-.891.631-1.97 1.16-2.44.545-.486 1.374-.849 2.154-.944.739-.09 1.054-.333 1.054-.814 0-.555-.298-.794-1.123-.897-.91-.115-1.54-.416-2.153-1.03-.618-.618-.883-1.164-1.056-2.173-.077-.454-.207-.891-.288-.972-.214-.211-.659-.28-.934-.142zm10.924 2.667c0 1.009-.026 1.159-.239 1.388-.364.393-.976.355-1.34-.085-.262-.314-.284-.424-.284-1.388v-1.046h1.863v1.131zm17.626-.03c-.033.986-.066 1.133-.303 1.389a.912.912 0 01-1.289.045c-.233-.222-.254-.333-.254-1.388V18.74h1.884l-.038 1.102zm-26.73 2.453c.059 0-.247.362-.68.805l-.786.805-.73-.748-.73-.748.727-.754.727-.754.682.697c.375.383.73.697.79.697zm11.563 5.515c-.123.026-1.69 1.32-3.48 2.876-3.103 2.698-3.253 2.846-3.253 3.214 0 .426-.399-.095 7.527 9.826 2.219 2.777 4.17 5.126 4.336 5.22.27.151.332.151.602-.001.375-.212 11.828-14.5 11.92-14.87.044-.177-.005-.368-.14-.556-.183-.25-3.643-3.304-5.77-5.09l-.758-.637-5.38-.015c-2.958-.008-5.48.007-5.604.033zm3.349 1.674c0 .045-.776.87-1.725 1.833l-1.725 1.75h-3.581l2.11-1.832 2.109-1.833h1.406c.773 0 1.406.037 1.406.082zm9.078 1.723l2.088 1.805-1.77.03-1.772.03-1.73-1.75c-.951-.963-1.73-1.789-1.73-1.835 0-.047.636-.085 1.413-.085h1.413l2.088 1.805zm-5.352.25l1.586 1.61h-6.46l1.586-1.61c.873-.886 1.612-1.61 1.644-1.61.032 0 .771.724 1.644 1.61zm-7.394 3.637c.25.553 3.116 8.343 3.08 8.378-.03.031-6.735-8.32-6.897-8.592-.071-.12.262-.147 1.782-.147h1.87l.165.361zm15.376-.27c-.063.154-6.919 8.687-6.953 8.652-.017-.018.46-1.364 1.06-2.99.906-2.458 1.072-3.006.985-3.238-.193-.515-.927-.693-1.3-.315-.109.11-.91 2.134-1.78 4.496-.871 2.362-1.608 4.295-1.638 4.295-.05 0-3.954-10.484-4.035-10.837-.03-.13 1.04-.154 6.83-.154 3.777 0 6.85.04 6.83.09zM44.39 43.2c-.127.142-.254.483-.293.79-.177 1.392-1.382 2.51-2.706 2.513-.714.002-1.038.986-.472 1.437.17.135.451.23.685.231.568.002 1.45.455 1.859.956.361.443.674 1.292.674 1.831 0 .355.443.766.825.766.454 0 .706-.335.826-1.098.139-.879.298-1.198.853-1.706.583-.533.742-.61 1.555-.742.781-.128.947-.247 1.047-.752.1-.511-.28-.863-1.045-.966-1.05-.141-1.764-.67-2.19-1.622-.122-.275-.224-.69-.225-.921-.005-.82-.892-1.277-1.393-.717zm1.022 3.665l.444.472-.466.459-.465.459-.455-.47-.455-.469.417-.447c.23-.245.444-.453.477-.461.032-.008.259.197.503.457z" fill="#AEA896" stroke="#AEA896" stroke-width=".5"/></svg>