<svg width="60" height="60" fill="none" xmlns="http://www.w3.org/2000/svg"><path fill-rule="evenodd" clip-rule="evenodd" d="M8.561 2.08c-.14.057-.34.26-.446.45-1.491 2.715-2.462 3.843-4.153 4.828-1.548.902-1.779 1.065-1.907 1.347-.195.428.09.72 1.47 1.51 1.991 1.14 3.037 2.235 4.22 4.42.866 1.6 1.288 1.612 2.14.062 1.362-2.476 2.369-3.49 4.724-4.755.89-.478 1.059-.652 1.059-1.094 0-.254-.097-.374-.501-.62l-1.518-.916c-1.698-1.023-2.606-2.059-3.932-4.484-.226-.414-.454-.752-.508-.752a1 1 0 01-.245-.049c-.081-.026-.263-.002-.403.054zm21.005-.001a4.11 4.11 0 00-3.064 3.663 3.964 3.964 0 002.702 4.04l.557.189V11.6l-1.08.184c-1.363.233-2.01.443-3.265 1.058-2.926 1.434-5.08 4.084-5.985 7.364-.323 1.174-.355 4.124-.057 5.35.977 4.021 3.869 7.11 7.8 8.33l.978.303-.543.574c-.865.914-1.254 2.364-.96 3.576.141.586.6 1.386 1.051 1.838.441.441 1.406 1.003 1.723 1.003.094 0 .171.056.171.125 0 .068-.371.908-.825 1.866-2.593 5.474-3.775 8.717-3.78 10.375-.006 2.463 1.738 4.642 4.238 5.293 3.296.858 6.737-1.835 6.737-5.273 0-1.108-.389-2.482-1.471-5.2-.593-1.487-2.055-4.74-2.769-6.158-.415-.826-.443-.929-.266-.989 1.232-.418 2.107-1.148 2.582-2.156.248-.525.29-.764.29-1.67 0-1.24-.226-1.829-1.029-2.689l-.48-.515.975-.304c3.854-1.202 6.723-4.194 7.731-8.064.293-1.123.4-3.397.215-4.552-.793-4.954-4.716-8.824-9.642-9.513l-.955-.134.032-.826.033-.826.557-.19c1.263-.428 2.321-1.565 2.621-2.815.437-1.822-.545-3.831-2.255-4.61-.711-.325-1.877-.45-2.567-.276zM31.3 3.532c.544.151 1.278.812 1.54 1.385.117.258.202.703.202 1.058 0 1.46-1.098 2.558-2.558 2.558-1.46 0-2.557-1.098-2.557-2.558 0-1.76 1.616-2.93 3.373-2.443zM9.554 5.36c.678 1.056 1.887 2.252 2.999 2.964.493.317.88.59.862.61-.019.018-.426.29-.905.602-1.138.743-2.337 1.953-3.075 3.103-.325.507-.605.907-.621.889a61.76 61.76 0 01-.702-1.035c-.83-1.237-1.798-2.2-3-2.984l-.918-.6.863-.542c1.133-.713 2.618-2.223 3.257-3.314.41-.697.522-.822.613-.675.061.098.344.54.627.982zm35.784.703c-.23.146-.369.683-.369 1.424v.716h-.883c-.822 0-.9.021-1.114.294-.3.38-.291.548.042.881.242.242.371.274 1.103.274h.829l.04.88c.044.97.247 1.348.725 1.348.519 0 .706-.355.706-1.337v-.891h.867c1.055 0 1.362-.163 1.362-.724 0-.561-.307-.725-1.362-.725h-.867v-.93c0-.758-.037-.963-.203-1.113-.213-.193-.65-.241-.876-.097zm-15.521 8.876v1.833l-.418.075c-1.182.215-2.801 1.11-3.517 1.947-.207.241-.403.439-.437.439-.034 0-.768-.405-1.633-.9l-1.572-.9.363-.506c.392-.547 1.425-1.544 2.143-2.067 1.208-.882 3.455-1.715 4.709-1.746l.362-.009v1.834zm2.715-1.668c2.359.5 4.525 1.875 5.907 3.75l.3.406-1.576.903c-.867.497-1.604.903-1.637.903-.034 0-.23-.198-.437-.44-.716-.835-2.335-1.731-3.517-1.946l-.418-.075v-3.667l.306.002c.169.001.651.075 1.072.164zm-.576 5.17c2.79.96 4.104 3.999 2.853 6.595-.629 1.303-1.589 2.13-2.97 2.556-1.687.521-3.545.026-4.848-1.294-.237-.24-.61-.808-.828-1.262-1.243-2.576.05-5.606 2.81-6.588.784-.28 2.182-.282 2.983-.007zm-8.835 1.135c.864.495 1.571.913 1.571.929 0 .016-.1.421-.223.9-.266 1.04-.282 2.094-.047 3.008l.229.892c.048.188-.188.362-1.534 1.131l-1.59.909-.21-.463c-.116-.255-.333-.939-.482-1.52-.306-1.19-.37-2.933-.152-4.133.11-.609.744-2.553.833-2.553.018 0 .74.405 1.605.9zm16.705.031c.45 1.242.588 2.075.584 3.506-.003 1.253-.312 2.794-.756 3.768l-.21.464-1.59-.909c-1.346-.769-1.582-.943-1.533-1.131.03-.123.134-.524.228-.892.235-.914.218-1.969-.047-3.008-.123-.48-.194-.902-.158-.937.093-.093 2.984-1.77 3.072-1.782.04-.006.225.409.41.921zm13.443-.13c-.35.199-.386.313-.388 1.232l-.002.863h-.717c-.74 0-1.277.14-1.423.37-.152.238-.092.706.116.894.154.14.423.185 1.114.185h.91v.93c0 1.032.162 1.326.73 1.326.513 0 .659-.273.702-1.313l.04-.943h.88c.73 0 .917-.038 1.102-.223.278-.278.284-.57.019-.896-.174-.215-.34-.26-1.103-.305l-.899-.052-.04-.889c-.035-.771-.075-.916-.302-1.1-.3-.242-.426-.256-.739-.079zm-41.55 2.454c-.121.173-.174.51-.174 1.114v.867h-.93c-1.024 0-1.298.145-1.298.688 0 .496.367.7 1.348.744l.88.04v.828c0 .732.033.861.274 1.103.15.15.353.273.45.273.098 0 .3-.123.451-.273.242-.242.274-.371.274-1.103v-.828l.88-.04c.991-.045 1.348-.247 1.348-.764s-.297-.668-1.318-.668h-.91v-.867c0-1.054-.163-1.361-.724-1.361-.264 0-.43.074-.551.247zm14.536 5.59c.8.753 1.793 1.31 2.726 1.528.307.071.62.146.697.166.104.028.139.502.139 1.89v1.852l-.585-.076c-2.492-.321-5.046-1.746-6.486-3.616l-.51-.664 1.089-.634c.599-.35 1.29-.752 1.534-.896.245-.143.49-.26.544-.262.054 0 .437.32.852.711zm9.903-.419l1.544.897 1.033.602-.51.664c-1.44 1.87-3.994 3.295-6.486 3.616l-.585.076v-1.852c0-1.388.035-1.862.14-1.89.076-.02.39-.095.695-.166.942-.22 1.93-.775 2.716-1.526.406-.39.784-.709.84-.71.056-.003.332.128.613.29zm12.467 6.14c-.09.107-.531.872-.978 1.7-1.8 3.334-3.13 4.675-6.537 6.588-2.334 1.311-2.374 1.558-.427 2.623 3.661 2.003 5.159 3.478 7.013 6.908.47.869.927 1.64 1.014 1.712.206.172.67.17.879-.004.09-.074.472-.72.85-1.434 1.873-3.544 3.294-5.006 6.73-6.922 2.358-1.315 2.392-1.558.371-2.677-2.063-1.142-3.065-1.845-4.095-2.872-1.183-1.18-1.735-1.95-2.839-3.968-.466-.852-.904-1.617-.972-1.7-.178-.214-.811-.185-1.009.046zm-17.081 1.91c1.29.598 1.8 2.186 1.108 3.457a2.471 2.471 0 01-3.955.547c-1.202-1.24-.847-3.2.73-4.03.466-.246 1.56-.232 2.117.026zm18.212 1.165c1.438 2.596 3.42 4.6 5.964 6.03 1.219.686 1.206.565.124 1.172-1.269.711-2.273 1.437-3.208 2.32-1.228 1.158-1.944 2.142-3.409 4.687-.063.109-.3-.213-.794-1.076-1.54-2.69-3.624-4.711-6.299-6.109-.34-.178-.618-.35-.618-.384 0-.034.237-.176.529-.316.957-.462 2.666-1.668 3.584-2.532 1.09-1.025 2.002-2.212 2.852-3.714.348-.616.648-1.12.666-1.12.018 0 .292.469.61 1.042zm-35.045 1.74c-.138.056-.546.655-1.002 1.47-1.046 1.871-2.223 3.066-4.026 4.088-1.379.781-1.508.892-1.508 1.297 0 .395.158.544 1.181 1.107 2.318 1.276 3.265 2.242 4.58 4.666.768 1.416 1.287 1.524 1.89.394 1.314-2.461 2.288-3.571 4.045-4.612 1.74-1.03 1.89-1.136 1.952-1.37.107-.407-.187-.726-1.198-1.297-2.373-1.343-3.267-2.255-4.567-4.662-.356-.66-.62-1.017-.802-1.086a1.84 1.84 0 00-.292-.096l-.253.101zm.9 3.134c.724 1.16 1.878 2.322 3.076 3.1l.958.623-.883.55c-1.161.722-2.49 2.053-3.167 3.174-.297.49-.565.892-.596.892-.03 0-.318-.416-.638-.926-.734-1.17-1.82-2.267-3.047-3.076l-.956-.63.938-.605c1.126-.725 2.457-2.078 3.146-3.197.273-.444.523-.805.555-.802.032.003.309.406.615.897zm15.587 3.195c1.754 3.785 3.086 7.228 3.292 8.508a3.982 3.982 0 01-1.699 3.928c-2.443 1.678-5.756.305-6.32-2.62-.156-.804-.056-1.466.457-3.01.626-1.884 3.373-8.237 3.557-8.226.03.002.352.64.713 1.42z" fill="#AEA896" stroke="#AEA896" stroke-width=".5"/></svg>