<svg width="60" height="60" fill="none" xmlns="http://www.w3.org/2000/svg"><path fill-rule="evenodd" clip-rule="evenodd" d="M24.777 1.16c-.394.14-.803.493-1.926 1.665-2.646 2.763-3.267 3.52-3.397 4.141-.144.685.04 1.52.456 2.073.664.882 9.113 10.9 9.361 11.1.47.376 1.032.552 1.755.55.803-.003 1.427-.248 1.924-.755.872-.889 9.146-10.875 9.379-11.32.335-.64.359-1.55.055-2.142-.357-.697-4.343-4.897-4.926-5.19-.507-.255-.532-.256-6.345-.277-5.03-.018-5.905.004-6.336.156zm3.591 3.105c-.58.877-1.07 1.579-1.089 1.558-.106-.114-1.724-2.991-1.724-3.065 0-.049.87-.088 1.934-.088h1.935l-1.055 1.595zm8.081-1.507c0 .074-1.618 2.951-1.724 3.065-.019.02-.51-.68-1.09-1.558L32.58 2.67h1.935c1.063 0 1.934.04 1.934.088zm-4.35 2.226c.558.836 1.015 1.55 1.015 1.587 0 .036-.95.066-2.112.066-1.162 0-2.112-.03-2.112-.066 0-.123 2.029-3.108 2.112-3.108.045 0 .54.684 1.097 1.52zm-7.034.37l.701 1.226-1.056.032c-.581.018-1.508.018-2.06 0l-1.002-.032 1.247-1.338c.83-.89 1.284-1.3 1.357-1.226.061.063.427.665.813 1.339zm14.29 1.258c-.552.018-1.48.018-2.063 0l-1.057-.032.617-1.077c.339-.592.696-1.203.792-1.357l.176-.28 1.27 1.357 1.27 1.357-1.005.032zm-12.1 4.19c.349 1.356.854 3.32 1.124 4.364.27 1.044.474 1.898.454 1.898-.032 0-6.75-8.01-7.154-8.531-.144-.185-.006-.196 2.395-.196h2.548l.633 2.465zm6.386-2.324c-.029.078-.622 2.348-1.318 5.044-.696 2.696-1.29 4.902-1.321 4.902-.03 0-.625-2.206-1.322-4.902a498.117 498.117 0 00-1.318-5.044c-.04-.11.533-.141 2.64-.141s2.68.03 2.64.141zm6.684.055c-.405.521-7.122 8.53-7.154 8.53-.02 0 .184-.853.454-1.897.27-1.045.776-3.008 1.124-4.364l.633-2.465h2.548c2.4 0 2.54.011 2.395.196zm-25.97 1.165c-.317.133-.521.578-.432.94.08.325 4.732 5.3 5.078 5.43.516.194 1.107-.22 1.107-.775 0-.328-.38-.776-2.858-3.383-2.106-2.214-2.384-2.427-2.896-2.212zm32.629-.023c-.329.137-4.975 5.133-5.048 5.427-.145.589.413 1.143 1 .993.135-.035 1.187-1.056 2.336-2.269 2.506-2.643 2.85-3.052 2.85-3.39 0-.526-.654-.963-1.138-.761zM8.73 15.345c-.244.274-.238.955.01 1.18.242.22 7.803 2.466 8.301 2.466.211 0 .44-.087.548-.208.244-.275.238-.955-.011-1.18-.242-.22-7.802-2.466-8.3-2.466-.211 0-.441.087-.548.207zm39.65.967c-2.088.632-3.876 1.219-3.974 1.304-.246.217-.23.95.027 1.187.112.103.358.188.547.188.485 0 8.045-2.25 8.281-2.465.264-.24.258-.955-.008-1.201-.124-.114-.374-.183-.64-.175-.24.008-2.144.53-4.232 1.162zm-37.193 6.466c-.577.211-.913.453-1.232.886-.315.427-4.508 7.33-4.783 7.873-.257.51-.228 1.013.092 1.57.426.741.8.845 3.06.845h1.886l.03 11.769.03 11.768.317.469c.2.292.53.575.884.755l.565.287h37.93l.565-.287c.353-.18.685-.463.884-.755l.318-.468.03-5.306c.031-5.2.027-5.31-.194-5.535-.242-.247-.67-.298-.999-.119-.412.225-.449.684-.449 5.612 0 4.49-.012 4.794-.203 4.97-.185.17-.828.188-6.948.188h-6.744V33.952h13.886l.032 4.827.033 4.826.312.274c.382.335.625.344 1.007.038l.292-.234v-9.731h1.91c2.228 0 2.647-.122 3.072-.894.328-.594.306-1.071-.08-1.768-.681-1.232-4.597-7.609-4.827-7.862a3.184 3.184 0 00-.686-.51l-.445-.244H32.54l-.213.268c-.275.346-.27.705.018 1.077l.23.299 8.802.001c6.767.002 8.862.034 9.064.142.162.086 1.153 1.607 2.566 3.937l2.304 3.797-12.154.029c-6.685.016-17.623.016-24.308 0l-12.154-.03 2.304-3.796c1.413-2.33 2.405-3.851 2.566-3.937.202-.108 2.297-.14 9.064-.142l8.802-.001.23-.299c.287-.372.293-.73.018-1.077l-.213-.268-8.93-.024c-7.245-.02-9.01.004-9.347.128zm14.59 22.848V57.3h-6.745c-6.12 0-6.763-.017-6.948-.188-.194-.18-.203-.69-.203-11.674V33.952h13.895v11.674zm8.781 0V57.3h-7.114V33.952h7.114v11.674z" fill="#AEA896" stroke="#AEA896" stroke-width=".3"/></svg>