<svg width="60" height="60" fill="none" xmlns="http://www.w3.org/2000/svg"><path fill-rule="evenodd" clip-rule="evenodd" d="M19.574 1.038c-3.798.466-6.237 1.316-7.727 2.694-.886.82-1.25 1.428-1.533 2.557-.739 2.954-2.7 5.791-5.367 7.768-.515.38-1.575 1.018-2.355 1.416-.962.49-1.46.812-1.547 1-.099.218-.044.737.247 2.363.761 4.245 1.314 6.248 2.43 8.803 1.548 3.548 3.538 6.447 6.357 9.262 2.072 2.068 4.349 3.785 6.763 5.1l.975.53v5.344l-.44.064c-.24.036-.781.096-1.2.135-2.161.2-4.854.835-5.998 1.414-.681.345-1.338.91-1.563 1.345-.208.402-.245 4.456-.045 4.984.28.745 1.23 1.428 2.684 1.93 2.867.992 8.711 1.485 13.59 1.147 5.776-.4 9.102-1.453 9.714-3.077.2-.528.163-4.582-.045-4.984-.225-.435-.882-1-1.563-1.345-1.144-.579-3.837-1.214-5.998-1.414-.419-.039-.959-.1-1.2-.135l-.44-.064V42.53l.908-.495c1.263-.689 3.297-2.044 4.48-2.986 1.43-1.138 3.77-3.53 4.876-4.987l.952-1.254.076.475c.153.955.523 1.407 4.006 4.903l3.443 3.455v6.349l-.79.133c-3.06.516-5.12 1.495-5.611 2.667-.247.59-.222 4.72.032 5.255.59 1.241 2.685 2.175 6.062 2.701 1.824.285 6.287.285 8.11 0 3.378-.526 5.473-1.46 6.063-2.7.254-.536.28-4.666.032-5.256-.491-1.172-2.55-2.15-5.61-2.667l-.791-.133v-6.35l3.442-3.455c2.212-2.219 3.541-3.643 3.717-3.982.387-.745.387-2.062 0-2.808-.18-.347-1.742-2-4.565-4.832-4.814-4.828-4.948-4.932-6.335-4.927-1.383.004-1.52.106-5.611 4.176l-3.672 3.652.433-.87c1.234-2.478 2.007-5.034 2.755-9.11.402-2.192.474-2.78.37-3.011-.09-.196-.53-.486-1.395-.921-2.724-1.37-4.558-2.96-6.092-5.279a14.08 14.08 0 01-1.738-3.812c-.395-1.402-.685-1.904-1.576-2.728-1.22-1.128-3.34-2.005-5.97-2.468-1.073-.189-4.838-.338-5.74-.227zm4.192 1.924c3.058.33 5.848 1.423 6.794 2.663a1.56 1.56 0 010 1.919c-.405.531-1.445 1.22-2.473 1.638-4.826 1.962-12.625 1.258-15.263-1.377-.846-.846-.822-1.637.077-2.512 1.83-1.78 6.56-2.795 10.865-2.331zM11.94 9.52c1.202 1.056 3.2 1.878 5.727 2.353 1.851.348 5.787.372 7.588.047 2.585-.468 4.697-1.318 5.906-2.376.394-.345.654-.5.684-.41.294.88 1.727 3.066 2.722 4.152l.68.74-.324.756c-.512 1.196-1.467 2.721-2.415 3.86-.87 1.043-.878 1.05-1.415 1.05-1.432 0-2.607.93-2.902 2.296-.07.326-.202.424-1.215.899-1.71.801-1.682.8-2.317.096-1.67-1.857-4.586-1.824-6.253.068-.554.63-.56.629-2.252-.164-1.013-.476-1.145-.573-1.215-.899a3.026 3.026 0 00-.935-1.584c-.553-.485-.877-.61-1.805-.699l-.756-.072-.743-.878c-.909-1.074-1.932-2.69-2.44-3.854l-.38-.871.706-.768c.804-.875 1.89-2.47 2.39-3.51.187-.39.358-.708.38-.709.023 0 .286.214.584.477zm-5.035 6.866c.62 1.246 1.55 2.647 2.41 3.628l.642.733-.285.613c-.493 1.058-.302 2.235.497 3.057.545.56.957.77 1.678.856a2.692 2.692 0 002.137-.669l.495-.439.644.319c.354.175.951.44 1.327.589.587.233.673.305.614.517-.17.611-.204 1.953-.07 2.744.295 1.748 1.49 3.433 2.9 4.088.566.263.837.314 1.671.314.834 0 1.105-.051 1.671-.314 1.41-.655 2.605-2.34 2.9-4.088.134-.791.1-2.133-.07-2.745-.06-.216.044-.292.849-.62a19.955 19.955 0 001.326-.59l.41-.217.487.449c1.243 1.145 3.283.832 4.196-.642.307-.496.354-.683.354-1.4 0-.63-.062-.948-.26-1.323l-.26-.494.644-.735c.852-.972 1.785-2.376 2.395-3.602a40.52 40.52 0 01.521-1.025c.014-.016.466.264 1.002.623.537.359 1.297.813 1.689 1.01.391.195.724.367.74.38.057.049-.699 4.024-.97 5.097-1.232 4.882-3.594 9.098-7.136 12.74-1.619 1.664-2.677 2.55-4.567 3.823-1.348.908-4.374 2.496-5.482 2.877-.561.193-.754.129-3.192-1.068-3.063-1.504-5.28-3.118-7.738-5.633A27.748 27.748 0 013.94 22.503c-.292-1.157-1.035-5.042-.974-5.09.02-.015.416-.226.882-.468a17.066 17.066 0 001.64-1c.436-.309.819-.566.851-.571.032-.006.288.45.567 1.012zm5.94 5.465a.943.943 0 01.287.65.943.943 0 01-.288.648.945.945 0 01-.65.288.944.944 0 01-.649-.288.942.942 0 01-.287-.649c0-.228.106-.468.287-.649a.944.944 0 01.65-.287c.228 0 .468.106.65.287zm18.74 0c.581.58.17 1.586-.65 1.586-.481 0-.936-.456-.936-.937 0-.48.455-.936.937-.936.228 0 .468.106.649.287zm-9.137 1.805c.63.286 1.398 1.178 1.657 1.926.283.814.283 2.385 0 3.2-.403 1.16-1.566 2.14-2.54 2.14s-2.137-.98-2.54-2.14c-.283-.815-.283-2.386 0-3.2.403-1.16 1.566-2.14 2.54-2.14.226 0 .623.096.883.214zm30.324 4.22l4.342 4.338v1.173l-4.333 4.321c-2.865 2.857-4.444 4.348-4.657 4.4a1.614 1.614 0 01-.644 0c-.213-.052-1.79-1.543-4.656-4.4l-4.334-4.321v-1.172l4.276-4.282c2.351-2.355 4.38-4.33 4.51-4.387.128-.059.44-.085.693-.058.429.046.759.347 4.803 4.388zm-8.718 1.734v1.492l-.576.496a3.976 3.976 0 00-.899 1.154c-.649 1.326-.46 3.38.42 4.573.42.572 1.37 1.091 1.992 1.091.622 0 1.571-.52 1.994-1.09.199-.27.45-.792.56-1.162.11-.37.225-.673.257-.673.033 0 .148.303.258.673.272.922.792 1.586 1.526 1.951.764.38 1.29.38 2.055 0 1.168-.581 1.86-2.07 1.76-3.792-.068-1.174-.47-2.033-1.274-2.725l-.576-.496v-2.984h-1.875v2.984l-.573.493c-.558.48-1.184 1.5-1.184 1.93 0 .115-.052.21-.117.21-.064 0-.117-.095-.117-.21 0-.43-.625-1.45-1.184-1.93l-.573-.493v-2.984h-1.874v1.492zm1.484 3.636c.312.465.446 1.232.34 1.944-.094.62-.511 1.282-.839 1.33-.477.07-.974-.875-.974-1.849 0-.973.498-1.917.974-1.848.13.02.355.21.499.423zm5.622 0c.312.465.446 1.232.34 1.944-.094.62-.51 1.282-.838 1.33-.477.07-.975-.875-.975-1.849 0-.973.498-1.917.975-1.848.13.02.354.21.498.423zM20.833 43.811l.732.27.732-.27c.403-.148.824-.297.937-.33.192-.055.205.135.205 2.867v2.927l-.47.188c-.629.251-2.18.251-2.807 0l-.471-.188v-2.927c0-2.732.014-2.922.205-2.867.113.033.534.182.937.33zm26.97.16c.684 0 .988-.059 1.376-.264l.497-.263v5.831l-.47.188c-.628.251-2.179.251-2.807 0l-.47-.188v-5.831l.497.263c.388.205.691.263 1.376.263zm-29.878 6.067c.127.333.767.831 1.504 1.172.484.223.757.255 2.136.255 1.38 0 1.652-.032 2.136-.255.733-.339 1.377-.839 1.502-1.167.114-.3.197-.298 2.595.033 2.307.319 4.895 1.084 4.895 1.448 0 .36-2.541 1.116-4.895 1.456-4.785.691-10.898.502-14.88-.462-1.275-.308-2.48-.791-2.48-.994 0-.508 4.18-1.521 7.177-1.74.118-.009.252.101.31.254zm26.302.071c.09.285.727.772 1.44 1.1.483.224.756.256 2.135.256 1.459 0 1.632-.023 2.226-.303.65-.307 1.322-.848 1.42-1.146.046-.136.212-.13 1.045.035 1.926.382 3.684 1.085 3.684 1.474 0 .45-2.525 1.335-4.685 1.643-2.488.355-6.291.247-8.754-.248-1.963-.395-3.554-1.12-3.313-1.509.164-.265 1.723-.907 2.814-1.158 1.888-.435 1.895-.435 1.988-.144zm-30.158 4.564c2.57.422 4.079.528 7.496.528 4.506 0 7.696-.363 10.103-1.148l1.151-.376-.034.823-.034.824-.495.272c-1.544.85-6.355 1.545-10.691 1.545s-9.147-.695-10.69-1.545l-.496-.272-.034-.825-.034-.825 1.147.38c.63.208 1.805.487 2.61.62zm26.53-.397c3.826 1.287 10.378 1.311 14.231.052.548-.18 1.09-.363 1.207-.41.192-.075.207-.013.175.722l-.035.804-.848.42c-1.748.866-3.996 1.222-7.644 1.21-3.598-.01-5.945-.402-7.566-1.263l-.691-.367-.035-.804c-.032-.734-.017-.798.175-.723.116.046.58.207 1.03.359z" fill="#AEA896"/></svg>