<svg width="60" height="60" fill="none" xmlns="http://www.w3.org/2000/svg"><g clip-path="url(#clip0_1502_8319)"><mask id="path-1-outside-1_1502_8319" maskUnits="userSpaceOnUse" x="0" y="0" width="60" height="60" fill="#000"><path fill="#fff" d="M0 0h60v60H0z"/><path fill-rule="evenodd" clip-rule="evenodd" d="M19.713 1.074c-3.06.364-5.073.945-7.484 2.16-5.7 2.87-9.803 8.386-10.964 14.743-.354 1.94-.353 5.317.003 7.212a20.776 20.776 0 005.445 10.633c3.99 4.192 9.688 6.526 15.325 6.278.904-.04 1.81-.102 2.012-.139l.369-.067v3.109c0 2.314.036 3.154.142 3.29.078.1 3.912 2.562 8.52 5.473 6.905 4.36 8.432 5.281 8.676 5.232.4-.08 16.558-8.642 16.88-8.943l.254-.24V33.458l-.255-.235c-.23-.213-14.592-8.087-16.074-8.813l-.623-.306v-2.512c0-2.875-.174-4.03-.967-6.444C38.195 6.692 30.114.894 21.276 1.017c-.672.01-1.376.035-1.563.057zm16.612.153c-.243.243-.299.787-.115 1.129.234.438.591.458 8.354.458h7.524v21.024l-1.901-1.898c-1.676-1.672-1.944-1.897-2.268-1.897-.478 0-.82.343-.82.823 0 .331.288.657 2.807 3.174 2.407 2.404 2.855 2.804 3.144 2.804.289 0 .737-.4 3.146-2.808 3.018-3.016 3.06-3.077 2.574-3.694-.177-.224-.337-.299-.645-.299-.378 0-.556.146-2.316 1.894l-1.907 1.895V1.556l-.278-.278L53.345 1H44.95c-8.246 0-8.4.004-8.623.227zM25.242 3.144a19.325 19.325 0 016.73 2.86c1.745 1.162 3.905 3.33 5.066 5.084 2.428 3.669 3.514 7.796 3.154 11.978-.075.862-.176 1.608-.225 1.658-.108.107-9.772 5.269-13.007 6.947-1.707.885-2.311 1.254-2.41 1.47-.09.198-.131 1.333-.131 3.614v3.326l-.369.063c-.202.034-.955.095-1.672.135-3.138.175-6.439-.547-9.407-2.056-5.042-2.564-8.637-7.25-9.883-12.878-.337-1.525-.421-4.798-.167-6.522.44-2.998 1.664-5.96 3.485-8.438.924-1.257 2.97-3.258 4.294-4.197 1.985-1.409 4.553-2.52 6.998-3.026 1.604-.332 1.574-.33 4.113-.293 1.857.027 2.547.082 3.431.275zm-4.389 1.509c-.133.19-.176.55-.176 1.473 0 1.436.128 1.675.9 1.675.683 0 .8-.25.8-1.7 0-1.478-.11-1.7-.85-1.7-.385 0-.537.056-.674.252zm8.305 1.907c-.31.182-1.244 1.933-1.258 2.36-.009.287.067.451.301.653.628.54 1.064.288 1.78-1.028.306-.565.558-1.144.56-1.287.003-.583-.845-1.011-1.383-.698zm-16.574.23c-.447.35-.395.815.21 1.89.602 1.071.745 1.207 1.274 1.207a.806.806 0 00.825-.8c0-.323-.841-1.907-1.21-2.278-.316-.318-.71-.325-1.099-.02zm8.32 3.618c-.218.218-.227.378-.227 3.903v3.675l-.612.28c-1.252.573-1.995 1.67-2.085 3.083-.061.954.145 1.712.66 2.422l.331.458-1.642 2.776c-.903 1.527-1.642 2.899-1.642 3.049 0 .15.135.408.3.572.375.376.867.393 1.208.041.137-.141.937-1.431 1.778-2.867l1.528-2.61 1.023.005c.896.005 1.104-.034 1.666-.31a3.772 3.772 0 001.722-1.768c.367-.798.341-2.129-.056-2.977-.38-.81-1.081-1.515-1.866-1.874l-.612-.28v-3.675c0-3.525-.01-3.685-.227-3.903-.14-.14-.378-.226-.624-.226-.245 0-.483.086-.623.226zM34.64 12.76c-1.182.61-1.527.924-1.527 1.386 0 .468.364.796.885.796.414 0 1.93-.776 2.242-1.148.362-.432.24-1.033-.263-1.293-.427-.22-.395-.227-1.337.26zm-28.016-.013c-.265.336-.306.815-.094 1.085.254.322 1.99 1.224 2.355 1.224.425 0 .906-.44.906-.83 0-.43-.356-.776-1.333-1.296-1.067-.567-1.498-.61-1.834-.183zm15.407 7.067c.214.062.557.275.762.474.785.76.78 1.74-.015 2.535-.82.819-1.822.8-2.588-.049-.684-.756-.655-1.783.07-2.485.546-.53 1.08-.672 1.77-.475zM4.6 20.9c-.196.136-.252.288-.252.673 0 .74.222.85 1.706.85 1.11 0 1.221-.02 1.449-.262a.97.97 0 00.246-.674c0-.642-.271-.764-1.7-.764-.9 0-1.26.044-1.45.177zm30.838.085c-.314.334-.323.909-.02 1.212.2.2.378.227 1.523.227 1.265 0 1.301-.008 1.53-.3.13-.163.236-.412.236-.55 0-.14-.106-.388-.235-.552-.23-.291-.268-.299-1.511-.299-1.188 0-1.294.018-1.523.262zm13.495 8.878c3.985 2.158 7.23 3.937 7.213 3.952-.018.015-.884.492-1.925 1.061L52.33 35.91l-7.271-3.982c-4-2.19-7.23-4.021-7.18-4.069.138-.13 3.591-1.918 3.708-1.92.056 0 3.362 1.765 7.347 3.924zm-41.153-1.2c-1.05.57-1.278.792-1.278 1.243 0 .297.585.905.87.905.115 0 .693-.272 1.285-.605 1.19-.67 1.388-.933 1.144-1.523-.13-.314-.527-.594-.838-.59-.075 0-.607.257-1.183.57zm35.903 4.4l7.724 4.235v4.453l-.924.566a22.51 22.51 0 01-1.014.602c-.049.02-.105-.91-.124-2.066-.033-1.926-.054-2.12-.262-2.322-.125-.121-3.595-2.06-7.711-4.31-4.117-2.25-7.484-4.144-7.484-4.209 0-.117 1.86-1.234 1.999-1.201.04.01 3.548 1.923 7.796 4.252zm-3.702 2.423c3.601 1.949 6.547 3.569 6.546 3.6 0 .031-1.093.633-2.428 1.338l-2.426 1.28-6.274-3.533c-3.451-1.944-6.695-3.77-7.21-4.058-.514-.288-.934-.55-.933-.581 0-.031 1.031-.598 2.29-1.26l2.288-1.202.8.436c.44.24 3.746 2.03 7.347 3.98zm-26.075-2.178c-.27.108-.583.558-1.163 1.672-.335.644-.357.742-.228 1.053.251.606 1.012.767 1.442.304.348-.374 1.16-1.915 1.162-2.204.002-.294-.415-.786-.736-.867a.912.912 0 00-.477.042zM33.6 39.2l7.146 4.024.001 6.659c0 3.663-.02 6.66-.045 6.66-.025 0-3.278-2.057-7.229-4.571l-7.183-4.57-.03-6.152c-.018-3.967.01-6.137.082-6.112.06.02 3.327 1.848 7.258 4.062zm-12.697-3.741c-.2.2-.226.378-.226 1.522 0 1.264.007 1.3.299 1.53.164.13.412.235.551.235.14 0 .388-.106.552-.235.291-.229.299-.266.299-1.522 0-1.255-.008-1.293-.3-1.522-.377-.297-.882-.3-1.174-.008zm36.174 6.676v6.789l-7.229 3.825a8672.91 8672.91 0 00-7.314 3.873c-.047.026-.085-2.96-.085-6.635v-6.682l2.423-1.316c1.332-.724 2.452-1.316 2.487-1.316.036 0 .081.94.1 2.088.035 2.031.044 2.096.31 2.38.152.161.4.293.553.293.3 0 4.243-2.14 4.616-2.505.21-.205.231-.412.284-2.89l.056-2.67 1.815-1.003c.997-.553 1.852-1.008 1.9-1.013.046-.004.084 3.048.084 6.782zm-28.649-1.802c-.312.125-.607.547-.607.87 0 .138.114.376.255.53.14.153 2.475 1.535 5.188 3.071 5.182 2.934 5.185 2.936 5.698 2.474.111-.1.198-.34.198-.545 0-.202-.089-.47-.198-.597-.207-.239-9.666-5.725-10.064-5.836a.862.862 0 00-.47.033zm-.28 3.628c-.101.06-.246.258-.323.442-.284.687-.21.743 5.099 3.822 5.2 3.016 5.5 3.15 5.935 2.67.277-.306.242-.952-.067-1.232-.14-.127-2.404-1.488-5.03-3.024-4.769-2.79-5.13-2.961-5.615-2.678z"/></mask><path fill-rule="evenodd" clip-rule="evenodd" d="M19.713 1.074c-3.06.364-5.073.945-7.484 2.16-5.7 2.87-9.803 8.386-10.964 14.743-.354 1.94-.353 5.317.003 7.212a20.776 20.776 0 005.445 10.633c3.99 4.192 9.688 6.526 15.325 6.278.904-.04 1.81-.102 2.012-.139l.369-.067v3.109c0 2.314.036 3.154.142 3.29.078.1 3.912 2.562 8.52 5.473 6.905 4.36 8.432 5.281 8.676 5.232.4-.08 16.558-8.642 16.88-8.943l.254-.24V33.458l-.255-.235c-.23-.213-14.592-8.087-16.074-8.813l-.623-.306v-2.512c0-2.875-.174-4.03-.967-6.444C38.195 6.692 30.114.894 21.276 1.017c-.672.01-1.376.035-1.563.057zm16.612.153c-.243.243-.299.787-.115 1.129.234.438.591.458 8.354.458h7.524v21.024l-1.901-1.898c-1.676-1.672-1.944-1.897-2.268-1.897-.478 0-.82.343-.82.823 0 .331.288.657 2.807 3.174 2.407 2.404 2.855 2.804 3.144 2.804.289 0 .737-.4 3.146-2.808 3.018-3.016 3.06-3.077 2.574-3.694-.177-.224-.337-.299-.645-.299-.378 0-.556.146-2.316 1.894l-1.907 1.895V1.556l-.278-.278L53.345 1H44.95c-8.246 0-8.4.004-8.623.227zM25.242 3.144a19.325 19.325 0 016.73 2.86c1.745 1.162 3.905 3.33 5.066 5.084 2.428 3.669 3.514 7.796 3.154 11.978-.075.862-.176 1.608-.225 1.658-.108.107-9.772 5.269-13.007 6.947-1.707.885-2.311 1.254-2.41 1.47-.09.198-.131 1.333-.131 3.614v3.326l-.369.063c-.202.034-.955.095-1.672.135-3.138.175-6.439-.547-9.407-2.056-5.042-2.564-8.637-7.25-9.883-12.878-.337-1.525-.421-4.798-.167-6.522.44-2.998 1.664-5.96 3.485-8.438.924-1.257 2.97-3.258 4.294-4.197 1.985-1.409 4.553-2.52 6.998-3.026 1.604-.332 1.574-.33 4.113-.293 1.857.027 2.547.082 3.431.275zm-4.389 1.509c-.133.19-.176.55-.176 1.473 0 1.436.128 1.675.9 1.675.683 0 .8-.25.8-1.7 0-1.478-.11-1.7-.85-1.7-.385 0-.537.056-.674.252zm8.305 1.907c-.31.182-1.244 1.933-1.258 2.36-.009.287.067.451.301.653.628.54 1.064.288 1.78-1.028.306-.565.558-1.144.56-1.287.003-.583-.845-1.011-1.383-.698zm-16.574.23c-.447.35-.395.815.21 1.89.602 1.071.745 1.207 1.274 1.207a.806.806 0 00.825-.8c0-.323-.841-1.907-1.21-2.278-.316-.318-.71-.325-1.099-.02zm8.32 3.618c-.218.218-.227.378-.227 3.903v3.675l-.612.28c-1.252.573-1.995 1.67-2.085 3.083-.061.954.145 1.712.66 2.422l.331.458-1.642 2.776c-.903 1.527-1.642 2.899-1.642 3.049 0 .15.135.408.3.572.375.376.867.393 1.208.041.137-.141.937-1.431 1.778-2.867l1.528-2.61 1.023.005c.896.005 1.104-.034 1.666-.31a3.772 3.772 0 001.722-1.768c.367-.798.341-2.129-.056-2.977-.38-.81-1.081-1.515-1.866-1.874l-.612-.28v-3.675c0-3.525-.01-3.685-.227-3.903-.14-.14-.378-.226-.624-.226-.245 0-.483.086-.623.226zM34.64 12.76c-1.182.61-1.527.924-1.527 1.386 0 .468.364.796.885.796.414 0 1.93-.776 2.242-1.148.362-.432.24-1.033-.263-1.293-.427-.22-.395-.227-1.337.26zm-28.016-.013c-.265.336-.306.815-.094 1.085.254.322 1.99 1.224 2.355 1.224.425 0 .906-.44.906-.83 0-.43-.356-.776-1.333-1.296-1.067-.567-1.498-.61-1.834-.183zm15.407 7.067c.214.062.557.275.762.474.785.76.78 1.74-.015 2.535-.82.819-1.822.8-2.588-.049-.684-.756-.655-1.783.07-2.485.546-.53 1.08-.672 1.77-.475zM4.6 20.9c-.196.136-.252.288-.252.673 0 .74.222.85 1.706.85 1.11 0 1.221-.02 1.449-.262a.97.97 0 00.246-.674c0-.642-.271-.764-1.7-.764-.9 0-1.26.044-1.45.177zm30.838.085c-.314.334-.323.909-.02 1.212.2.2.378.227 1.523.227 1.265 0 1.301-.008 1.53-.3.13-.163.236-.412.236-.55 0-.14-.106-.388-.235-.552-.23-.291-.268-.299-1.511-.299-1.188 0-1.294.018-1.523.262zm13.495 8.878c3.985 2.158 7.23 3.937 7.213 3.952-.018.015-.884.492-1.925 1.061L52.33 35.91l-7.271-3.982c-4-2.19-7.23-4.021-7.18-4.069.138-.13 3.591-1.918 3.708-1.92.056 0 3.362 1.765 7.347 3.924zm-41.153-1.2c-1.05.57-1.278.792-1.278 1.243 0 .297.585.905.87.905.115 0 .693-.272 1.285-.605 1.19-.67 1.388-.933 1.144-1.523-.13-.314-.527-.594-.838-.59-.075 0-.607.257-1.183.57zm35.903 4.4l7.724 4.235v4.453l-.924.566a22.51 22.51 0 01-1.014.602c-.049.02-.105-.91-.124-2.066-.033-1.926-.054-2.12-.262-2.322-.125-.121-3.595-2.06-7.711-4.31-4.117-2.25-7.484-4.144-7.484-4.209 0-.117 1.86-1.234 1.999-1.201.04.01 3.548 1.923 7.796 4.252zm-3.702 2.423c3.601 1.949 6.547 3.569 6.546 3.6 0 .031-1.093.633-2.428 1.338l-2.426 1.28-6.274-3.533c-3.451-1.944-6.695-3.77-7.21-4.058-.514-.288-.934-.55-.933-.581 0-.031 1.031-.598 2.29-1.26l2.288-1.202.8.436c.44.24 3.746 2.03 7.347 3.98zm-26.075-2.178c-.27.108-.583.558-1.163 1.672-.335.644-.357.742-.228 1.053.251.606 1.012.767 1.442.304.348-.374 1.16-1.915 1.162-2.204.002-.294-.415-.786-.736-.867a.912.912 0 00-.477.042zM33.6 39.2l7.146 4.024.001 6.659c0 3.663-.02 6.66-.045 6.66-.025 0-3.278-2.057-7.229-4.571l-7.183-4.57-.03-6.152c-.018-3.967.01-6.137.082-6.112.06.02 3.327 1.848 7.258 4.062zm-12.697-3.741c-.2.2-.226.378-.226 1.522 0 1.264.007 1.3.299 1.53.164.13.412.235.551.235.14 0 .388-.106.552-.235.291-.229.299-.266.299-1.522 0-1.255-.008-1.293-.3-1.522-.377-.297-.882-.3-1.174-.008zm36.174 6.676v6.789l-7.229 3.825a8672.91 8672.91 0 00-7.314 3.873c-.047.026-.085-2.96-.085-6.635v-6.682l2.423-1.316c1.332-.724 2.452-1.316 2.487-1.316.036 0 .081.94.1 2.088.035 2.031.044 2.096.31 2.38.152.161.4.293.553.293.3 0 4.243-2.14 4.616-2.505.21-.205.231-.412.284-2.89l.056-2.67 1.815-1.003c.997-.553 1.852-1.008 1.9-1.013.046-.004.084 3.048.084 6.782zm-28.649-1.802c-.312.125-.607.547-.607.87 0 .138.114.376.255.53.14.153 2.475 1.535 5.188 3.071 5.182 2.934 5.185 2.936 5.698 2.474.111-.1.198-.34.198-.545 0-.202-.089-.47-.198-.597-.207-.239-9.666-5.725-10.064-5.836a.862.862 0 00-.47.033zm-.28 3.628c-.101.06-.246.258-.323.442-.284.687-.21.743 5.099 3.822 5.2 3.016 5.5 3.15 5.935 2.67.277-.306.242-.952-.067-1.232-.14-.127-2.404-1.488-5.03-3.024-4.769-2.79-5.13-2.961-5.615-2.678z" fill="#AEA896"/><path clip-rule="evenodd" d="M19.713 1.074c-3.06.364-5.073.945-7.484 2.16-5.7 2.87-9.803 8.386-10.964 14.743-.354 1.94-.353 5.317.003 7.212a20.776 20.776 0 005.445 10.633c3.99 4.192 9.688 6.526 15.325 6.278.904-.04 1.81-.102 2.012-.139l.369-.067v3.109c0 2.314.036 3.154.142 3.29.078.1 3.912 2.562 8.52 5.473 6.905 4.36 8.432 5.281 8.676 5.232.4-.08 16.558-8.642 16.88-8.943l.254-.24V33.458l-.255-.235c-.23-.213-14.592-8.087-16.074-8.813l-.623-.306v-2.512c0-2.875-.174-4.03-.967-6.444C38.195 6.692 30.114.894 21.276 1.017c-.672.01-1.376.035-1.563.057zm16.612.153c-.243.243-.299.787-.115 1.129.234.438.591.458 8.354.458h7.524v21.024l-1.901-1.898c-1.676-1.672-1.944-1.897-2.268-1.897-.478 0-.82.343-.82.823 0 .331.288.657 2.807 3.174 2.407 2.404 2.855 2.804 3.144 2.804.289 0 .737-.4 3.146-2.808 3.018-3.016 3.06-3.077 2.574-3.694-.177-.224-.337-.299-.645-.299-.378 0-.556.146-2.316 1.894l-1.907 1.895V1.556l-.278-.278L53.345 1H44.95c-8.246 0-8.4.004-8.623.227zM25.242 3.144a19.325 19.325 0 016.73 2.86c1.745 1.162 3.905 3.33 5.066 5.084 2.428 3.669 3.514 7.796 3.154 11.978-.075.862-.176 1.608-.225 1.658-.108.107-9.772 5.269-13.007 6.947-1.707.885-2.311 1.254-2.41 1.47-.09.198-.131 1.333-.131 3.614v3.326l-.369.063c-.202.034-.955.095-1.672.135-3.138.175-6.439-.547-9.407-2.056-5.042-2.564-8.637-7.25-9.883-12.878-.337-1.525-.421-4.798-.167-6.522.44-2.998 1.664-5.96 3.485-8.438.924-1.257 2.97-3.258 4.294-4.197 1.985-1.409 4.553-2.52 6.998-3.026 1.604-.332 1.574-.33 4.113-.293 1.857.027 2.547.082 3.431.275zm-4.389 1.509c-.133.19-.176.55-.176 1.473 0 1.436.128 1.675.9 1.675.683 0 .8-.25.8-1.7 0-1.478-.11-1.7-.85-1.7-.385 0-.537.056-.674.252zm8.305 1.907c-.31.182-1.244 1.933-1.258 2.36-.009.287.067.451.301.653.628.54 1.064.288 1.78-1.028.306-.565.558-1.144.56-1.287.003-.583-.845-1.011-1.383-.698zm-16.574.23c-.447.35-.395.815.21 1.89.602 1.071.745 1.207 1.274 1.207a.806.806 0 00.825-.8c0-.323-.841-1.907-1.21-2.278-.316-.318-.71-.325-1.099-.02zm8.32 3.618c-.218.218-.227.378-.227 3.903v3.675l-.612.28c-1.252.573-1.995 1.67-2.085 3.083-.061.954.145 1.712.66 2.422l.331.458-1.642 2.776c-.903 1.527-1.642 2.899-1.642 3.049 0 .15.135.408.3.572.375.376.867.393 1.208.041.137-.141.937-1.431 1.778-2.867l1.528-2.61 1.023.005c.896.005 1.104-.034 1.666-.31a3.772 3.772 0 001.722-1.768c.367-.798.341-2.129-.056-2.977-.38-.81-1.081-1.515-1.866-1.874l-.612-.28v-3.675c0-3.525-.01-3.685-.227-3.903-.14-.14-.378-.226-.624-.226-.245 0-.483.086-.623.226zM34.64 12.76c-1.182.61-1.527.924-1.527 1.386 0 .468.364.796.885.796.414 0 1.93-.776 2.242-1.148.362-.432.24-1.033-.263-1.293-.427-.22-.395-.227-1.337.26zm-28.016-.013c-.265.336-.306.815-.094 1.085.254.322 1.99 1.224 2.355 1.224.425 0 .906-.44.906-.83 0-.43-.356-.776-1.333-1.296-1.067-.567-1.498-.61-1.834-.183zm15.407 7.067c.214.062.557.275.762.474.785.76.78 1.74-.015 2.535-.82.819-1.822.8-2.588-.049-.684-.756-.655-1.783.07-2.485.546-.53 1.08-.672 1.77-.475zM4.6 20.9c-.196.136-.252.288-.252.673 0 .74.222.85 1.706.85 1.11 0 1.221-.02 1.449-.262a.97.97 0 00.246-.674c0-.642-.271-.764-1.7-.764-.9 0-1.26.044-1.45.177zm30.838.085c-.314.334-.323.909-.02 1.212.2.2.378.227 1.523.227 1.265 0 1.301-.008 1.53-.3.13-.163.236-.412.236-.55 0-.14-.106-.388-.235-.552-.23-.291-.268-.299-1.511-.299-1.188 0-1.294.018-1.523.262zm13.495 8.878c3.985 2.158 7.23 3.937 7.213 3.952-.018.015-.884.492-1.925 1.061L52.33 35.91l-7.271-3.982c-4-2.19-7.23-4.021-7.18-4.069.138-.13 3.591-1.918 3.708-1.92.056 0 3.362 1.765 7.347 3.924zm-41.153-1.2c-1.05.57-1.278.792-1.278 1.243 0 .297.585.905.87.905.115 0 .693-.272 1.285-.605 1.19-.67 1.388-.933 1.144-1.523-.13-.314-.527-.594-.838-.59-.075 0-.607.257-1.183.57zm35.903 4.4l7.724 4.235v4.453l-.924.566a22.51 22.51 0 01-1.014.602c-.049.02-.105-.91-.124-2.066-.033-1.926-.054-2.12-.262-2.322-.125-.121-3.595-2.06-7.711-4.31-4.117-2.25-7.484-4.144-7.484-4.209 0-.117 1.86-1.234 1.999-1.201.04.01 3.548 1.923 7.796 4.252zm-3.702 2.423c3.601 1.949 6.547 3.569 6.546 3.6 0 .031-1.093.633-2.428 1.338l-2.426 1.28-6.274-3.533c-3.451-1.944-6.695-3.77-7.21-4.058-.514-.288-.934-.55-.933-.581 0-.031 1.031-.598 2.29-1.26l2.288-1.202.8.436c.44.24 3.746 2.03 7.347 3.98zm-26.075-2.178c-.27.108-.583.558-1.163 1.672-.335.644-.357.742-.228 1.053.251.606 1.012.767 1.442.304.348-.374 1.16-1.915 1.162-2.204.002-.294-.415-.786-.736-.867a.912.912 0 00-.477.042zM33.6 39.2l7.146 4.024.001 6.659c0 3.663-.02 6.66-.045 6.66-.025 0-3.278-2.057-7.229-4.571l-7.183-4.57-.03-6.152c-.018-3.967.01-6.137.082-6.112.06.02 3.327 1.848 7.258 4.062zm-12.697-3.741c-.2.2-.226.378-.226 1.522 0 1.264.007 1.3.299 1.53.164.13.412.235.551.235.14 0 .388-.106.552-.235.291-.229.299-.266.299-1.522 0-1.255-.008-1.293-.3-1.522-.377-.297-.882-.3-1.174-.008zm36.174 6.676v6.789l-7.229 3.825a8672.91 8672.91 0 00-7.314 3.873c-.047.026-.085-2.96-.085-6.635v-6.682l2.423-1.316c1.332-.724 2.452-1.316 2.487-1.316.036 0 .081.94.1 2.088.035 2.031.044 2.096.31 2.38.152.161.4.293.553.293.3 0 4.243-2.14 4.616-2.505.21-.205.231-.412.284-2.89l.056-2.67 1.815-1.003c.997-.553 1.852-1.008 1.9-1.013.046-.004.084 3.048.084 6.782zm-28.649-1.802c-.312.125-.607.547-.607.87 0 .138.114.376.255.53.14.153 2.475 1.535 5.188 3.071 5.182 2.934 5.185 2.936 5.698 2.474.111-.1.198-.34.198-.545 0-.202-.089-.47-.198-.597-.207-.239-9.666-5.725-10.064-5.836a.862.862 0 00-.47.033zm-.28 3.628c-.101.06-.246.258-.323.442-.284.687-.21.743 5.099 3.822 5.2 3.016 5.5 3.15 5.935 2.67.277-.306.242-.952-.067-1.232-.14-.127-2.404-1.488-5.03-3.024-4.769-2.79-5.13-2.961-5.615-2.678z" stroke="#AEA896" stroke-width=".4" mask="url(#path-1-outside-1_1502_8319)"/></g><defs><clipPath id="clip0_1502_8319"><path fill="#fff" d="M0 0h60v60H0z"/></clipPath></defs></svg>