<svg width="24" height="24" fill="none" xmlns="http://www.w3.org/2000/svg"><g clip-path="url(#clip0_1425_3763)" fill="#D0D0D0"><path d="M23 19h-2v-2a1 1 0 00-2 0v2h-2a1 1 0 000 2h2v2a1 1 0 002 0v-2h2a1 1 0 000-2z"/><path d="M21 6h-3A6 6 0 106 6H3a3 3 0 00-3 3v10a5.006 5.006 0 005 5h9a1 1 0 000-2H5a3 3 0 01-3-3V9a1 1 0 011-1h3v2a1 1 0 102 0V8h8v2a1 1 0 002 0V8h3a1 1 0 011 1v5a1 1 0 002 0V9a3 3 0 00-3-3zM8 6a4 4 0 018 0H8z"/></g><defs><clipPath id="clip0_1425_3763"><path fill="#fff" d="M0 0h24v24H0z"/></clipPath></defs></svg>