<svg width="487" height="99" fill="none" xmlns="http://www.w3.org/2000/svg"><path d="M7.396 52.844H0V7.522h7.069l32.986 35.74V7.521h7.396v45.322h-7.068L7.396 17.104v35.74zm75.999 1.554c-2.923 0-5.629-.238-8.116-.713a26.061 26.061 0 01-7.134-2.33c-2.225-1.123-4.123-2.547-5.694-4.273-1.57-1.727-2.814-3.928-3.73-6.605-.917-2.676-1.375-5.74-1.375-9.193v-2.202c0-4.316.698-8.028 2.094-11.136 1.44-3.108 3.425-5.503 5.956-7.187a26.872 26.872 0 018.312-3.625c3.011-.777 6.35-1.166 10.014-1.166 2.924 0 5.629.238 8.116.713a25.164 25.164 0 017.069 2.33c2.269 1.123 4.188 2.547 5.759 4.274 1.571 1.726 2.815 3.927 3.731 6.604.916 2.676 1.374 5.74 1.374 9.193v2.202c0 4.316-.72 8.028-2.16 11.136-1.396 3.108-3.381 5.503-5.955 7.187a26.013 26.013 0 01-8.313 3.625c-2.967.777-6.283 1.166-9.948 1.166zm-6.676-6.67c1.964.476 4.233.713 6.807.713 2.574 0 4.843-.237 6.807-.712a17.503 17.503 0 005.628-2.59c1.746-1.208 3.076-2.978 3.993-5.309.96-2.374 1.44-5.244 1.44-8.611v-2.072c0-3.367-.48-6.215-1.44-8.546-.916-2.374-2.247-4.165-3.993-5.374-1.745-1.209-3.6-2.05-5.563-2.525-1.963-.518-4.232-.777-6.807-.777-2.574 0-4.865.259-6.872.777-1.963.475-3.818 1.316-5.563 2.525-1.746 1.209-3.098 3-4.058 5.374-.916 2.33-1.374 5.18-1.374 8.546v2.072c0 3.367.458 6.237 1.374 8.611.96 2.33 2.313 4.1 4.058 5.31 1.745 1.208 3.6 2.071 5.563 2.589zm80.665-40.206h8.639l-21.926 45.322h-8.443L113.729 7.522h9.032l17.278 37.423 17.345-37.423zm13.367 45.322h-8.574l23.104-45.322h8.312l23.038 45.322h-8.836l-5.694-11.849h-25.656l-5.694 11.849zm18.522-38.653l-10.079 20.977h20.158l-10.079-20.977zm51.815 38.653h-7.985V34.78L211.832 7.522h9.425l15.969 21.301 15.97-21.3h9.163L241.088 34.78v18.064zm25.025 0h-8.574l23.104-45.322h8.312l23.039 45.322h-8.836l-5.694-11.849h-25.656l-5.695 11.849zm18.523-38.653l-10.08 20.977h20.159l-10.079-20.977zM70.808 92.627l-2.416 6.078h-2.953l8.575-20.787h3.237l8.44 20.787h-2.907l-2.402-6.078h-9.574zm4.787-12.585a49.083 49.083 0 01-.611 1.844 46.24 46.24 0 01-.642 1.77l-2.67 6.772h7.86l-2.7-6.86a46.357 46.357 0 01-1.237-3.526zm35.221 16.642c2.943 0 5.155-1.441 6.637-4.323l2.326 1.15c-.865 1.79-2.083 3.153-3.654 4.087-1.561.935-3.375 1.402-5.443 1.402-2.128 0-3.957-.438-5.489-1.313-1.531-.875-2.709-2.12-3.534-3.733-.815-1.622-1.223-3.535-1.223-5.738 0-2.213.408-4.112 1.223-5.695.815-1.584 1.988-2.798 3.52-3.644 1.531-.846 3.36-1.269 5.488-1.269 2.237 0 4.106.433 5.607 1.298 1.502.866 2.605 2.15 3.311 3.85l-2.699.886c-.487-1.21-1.273-2.134-2.357-2.774-1.073-.639-2.351-.959-3.832-.959-2.327 0-4.136.743-5.429 2.228-1.293 1.475-1.939 3.502-1.939 6.079 0 1.691.303 3.176.91 4.455.616 1.269 1.481 2.257 2.595 2.965 1.123.699 2.451 1.048 3.982 1.048zm35.206 0c2.943 0 5.155-1.441 6.636-4.323l2.327 1.15c-.865 1.79-2.083 3.153-3.654 4.087-1.561.935-3.375 1.402-5.443 1.402-2.128 0-3.958-.438-5.489-1.313-1.531-.875-2.709-2.12-3.534-3.733-.815-1.622-1.223-3.535-1.223-5.738 0-2.213.408-4.112 1.223-5.695.815-1.584 1.988-2.798 3.519-3.644 1.532-.846 3.361-1.269 5.489-1.269 2.237 0 4.106.433 5.607 1.298 1.502.866 2.605 2.15 3.311 3.85l-2.699.886c-.487-1.21-1.273-2.134-2.357-2.774-1.073-.639-2.351-.959-3.832-.959-2.327 0-4.137.743-5.429 2.228-1.293 1.475-1.939 3.502-1.939 6.079 0 1.691.303 3.176.91 4.455.616 1.269 1.481 2.257 2.595 2.965 1.123.699 2.451 1.048 3.982 1.048zm42.335-.281v2.302h-16.555V77.918h15.943v2.301h-13.094v6.669h12.199v2.272h-12.199v7.243h13.706zm33.416-3.437c0 1.918-.761 3.403-2.282 4.455-1.511 1.053-3.644 1.579-6.398 1.579-5.12 0-8.088-1.76-8.903-5.282l2.759-.546c.318 1.25.994 2.17 2.028 2.76 1.034.58 2.441.87 4.22.87 1.84 0 3.257-.31 4.251-.93 1.004-.63 1.506-1.549 1.506-2.758 0-.68-.159-1.23-.477-1.653-.308-.423-.746-.772-1.313-1.047-.566-.276-1.242-.507-2.028-.694-.785-.187-1.655-.388-2.61-.605a33.743 33.743 0 01-2.774-.722c-.735-.237-1.342-.482-1.819-.738a7.121 7.121 0 01-1.223-.841 4.72 4.72 0 01-1.148-1.579c-.259-.6-.388-1.288-.388-2.065 0-1.78.686-3.152 2.058-4.116 1.382-.964 3.356-1.446 5.921-1.446 2.386 0 4.21.364 5.473 1.092 1.263.718 2.148 1.947 2.655 3.688l-2.804.487c-.308-1.102-.895-1.898-1.76-2.39-.865-.502-2.063-.753-3.594-.753-1.68 0-2.963.276-3.848.827-.885.55-1.327 1.372-1.327 2.463 0 .64.169 1.17.507 1.594.348.413.845.762 1.491 1.047.607.285 1.894.644 3.863 1.077a83.83 83.83 0 012.386.59c.786.197 1.526.448 2.222.753a6.5 6.5 0 011.164.62c.377.235.705.51.984.825.378.414.671.9.88 1.461.218.56.328 1.22.328 1.977zm33.506 0c0 1.918-.761 3.403-2.282 4.455-1.511 1.053-3.644 1.579-6.398 1.579-5.121 0-8.088-1.76-8.904-5.282l2.759-.546c.319 1.25.995 2.17 2.029 2.76 1.034.58 2.44.87 4.22.87 1.84 0 3.256-.31 4.251-.93 1.004-.63 1.506-1.549 1.506-2.758 0-.68-.159-1.23-.477-1.653-.309-.423-.746-.772-1.313-1.047-.566-.276-1.243-.507-2.028-.694-.785-.187-1.655-.388-2.61-.605a33.636 33.636 0 01-2.774-.722c-.736-.237-1.342-.482-1.819-.738a7.082 7.082 0 01-1.223-.841 4.736 4.736 0 01-1.149-1.579c-.258-.6-.387-1.288-.387-2.065 0-1.78.686-3.152 2.058-4.116 1.382-.964 3.355-1.446 5.92-1.446 2.387 0 4.211.364 5.474 1.092 1.263.718 2.147 1.947 2.654 3.688l-2.803.487c-.309-1.102-.895-1.898-1.76-2.39-.865-.502-2.063-.753-3.594-.753-1.681 0-2.963.276-3.848.827-.885.55-1.327 1.372-1.327 2.463 0 .64.169 1.17.507 1.594.348.413.845.762 1.491 1.047.607.285 1.894.644 3.863 1.077.805.187 1.6.384 2.386.59.785.197 1.526.448 2.222.753.408.167.795.373 1.163.62.378.235.706.51.985.825.377.414.671.9.88 1.461.218.56.328 1.22.328 1.977zm36.831-4.75c0 2.222-.427 4.14-1.282 5.753-.846 1.613-2.049 2.857-3.61 3.733-1.561.865-3.41 1.298-5.547 1.298-2.148 0-4.002-.433-5.563-1.298-1.551-.866-2.749-2.105-3.595-3.718-.835-1.613-1.252-3.536-1.252-5.768 0-2.223.412-4.122 1.238-5.695.835-1.584 2.028-2.798 3.579-3.644 1.561-.846 3.435-1.269 5.622-1.269 2.148 0 3.997.418 5.548 1.254 1.561.836 2.759 2.046 3.594 3.63.846 1.573 1.268 3.481 1.268 5.724zm-2.908 0c0-2.587-.656-4.618-1.969-6.094-1.302-1.475-3.146-2.213-5.533-2.213-2.406 0-4.265.728-5.577 2.184-1.313 1.456-1.969 3.496-1.969 6.123 0 1.73.298 3.235.895 4.514.596 1.269 1.456 2.252 2.58 2.95 1.123.689 2.471 1.033 4.042 1.033 2.425 0 4.285-.737 5.577-2.213 1.303-1.485 1.954-3.58 1.954-6.284zm22.872 1.858v8.63h-2.848V77.919h9.888c2.366 0 4.19.526 5.473 1.578 1.292 1.043 1.939 2.499 1.939 4.367 0 1.544-.458 2.843-1.372 3.895-.905 1.053-2.158 1.716-3.759 1.992l5.966 8.955h-3.281l-5.459-8.63h-6.547zm11.588-6.181c0-1.21-.417-2.13-1.253-2.759-.825-.64-2.018-.959-3.579-.959h-6.756v7.672h6.875c1.502 0 2.66-.345 3.475-1.033.826-.698 1.238-1.672 1.238-2.921zm23.931-5.975v20.787h-2.848V77.918h2.848zm35.027 18.485v2.302h-16.554V77.918h15.943v2.301h-13.094v6.669h12.199v2.272h-12.199v7.243h13.705zm33.417-3.437c0 1.918-.761 3.403-2.282 4.455-1.511 1.053-3.644 1.579-6.398 1.579-5.121 0-8.088-1.76-8.904-5.282l2.759-.546c.319 1.25.995 2.17 2.029 2.76 1.034.58 2.441.87 4.22.87 1.84 0 3.256-.31 4.251-.93 1.004-.63 1.506-1.549 1.506-2.758 0-.68-.159-1.23-.477-1.653-.309-.423-.746-.772-1.313-1.047-.566-.276-1.243-.507-2.028-.694-.785-.187-1.655-.388-2.61-.605a33.743 33.743 0 01-2.774-.722c-.736-.237-1.342-.482-1.819-.738a7.082 7.082 0 01-1.223-.841 4.736 4.736 0 01-1.149-1.579c-.258-.6-.387-1.288-.387-2.065 0-1.78.686-3.152 2.058-4.116 1.382-.964 3.355-1.446 5.921-1.446 2.386 0 4.21.364 5.473 1.092 1.263.718 2.147 1.947 2.654 3.688l-2.803.487c-.309-1.102-.895-1.898-1.76-2.39-.865-.502-2.063-.753-3.594-.753-1.681 0-2.963.276-3.848.827-.885.55-1.327 1.372-1.327 2.463 0 .64.169 1.17.507 1.594.348.413.845.762 1.491 1.047.607.285 1.894.644 3.863 1.077.805.187 1.6.384 2.386.59.785.197 1.526.448 2.222.753.408.167.795.373 1.163.62.378.235.706.51.985.825.377.414.671.9.88 1.461.218.56.328 1.22.328 1.977zm.057-40.122h-7.985V34.78L386.838 7.522h9.425l15.97 21.301 15.969-21.3h9.163L416.094 34.78v18.064zm25.026 0h-8.574l23.103-45.322h8.313L487 52.844h-8.836l-5.694-11.849h-25.656l-5.694 11.849zm18.522-38.653l-10.079 20.977h20.158l-10.079-20.977z" fill="#484848"/><path fill-rule="evenodd" clip-rule="evenodd" d="M329.918 19.1c3.604 1.697 6.566 3.034 6.582 2.969.016-.065.483-2.945 1.038-6.399l1.01-6.28-15.183 6.622 6.553 3.087zm20.342-8.979a1064.88 1064.88 0 005.476 3.557c.059.033 1.059-3.032 2.223-6.81L360.074 0l-15.183 6.622 5.369 3.5zm-9.02 5.422l-.996 6.165 12.698-5.538-5.274-3.431c-2.9-1.887-5.309-3.416-5.353-3.397-.044.02-.527 2.81-1.075 6.2zm-20.05 5.952c-.207 1.147-.67 3.7-1.029 5.672l-.653 3.586 13.701-5.976-5.757-2.712c-3.166-1.492-5.786-2.7-5.821-2.685-.036.015-.234.967-.441 2.115zm40.645-14.428l-1.858 6.034 13.701-5.976-3.117-1.941a4299.149 4299.149 0 01-4.928-3.074c-.996-.623-1.84-1.12-1.875-1.105-.036.015-.901 2.743-1.923 6.062zm-40.162 27.37c.367.248 36.405 18.661 36.421 18.608.007-.024-4.599-5.83-10.237-12.902l-10.25-12.859-8.092 3.493c-7.943 3.428-8.087 3.495-7.842 3.66zm19.339-8.529c.064.072 4.502 5.645 9.862 12.385 5.359 6.74 9.768 12.244 9.798 12.232.029-.013-1.106-6.945-2.522-15.406-1.416-8.46-2.582-15.46-2.592-15.556-.014-.137-1.527.485-7.341 3.02-5.813 2.537-7.298 3.222-7.205 3.325zm17.903-7.784c.047.482 5.338 32.2 5.375 32.217.047.023 10.493-38.28 10.629-38.975l.092-.469-8.058 3.514c-6.861 2.993-8.054 3.544-8.038 3.713z" fill="#FE4947"/></svg>