<svg width="72" height="72" fill="none" xmlns="http://www.w3.org/2000/svg"><g clip-path="url(#clip0_887_7235)"><path d="M.5 36C.5 16.425 16.425.5 36 .5S71.5 16.425 71.5 36 55.575 71.5 36 71.5.5 55.575.5 36z" stroke="#785D4C"/><path d="M30.304 49.5c-.363 0-.711-.145-.967-.406l-9.437-9.6a1.407 1.407 0 010-1.966 1.35 1.35 0 011.932 0l8.472 8.616 21.364-21.737a1.35 1.35 0 011.932 0 1.407 1.407 0 010 1.966L31.269 49.092a1.343 1.343 0 01-.965.408z" fill="#785D4C"/></g><defs><clipPath id="clip0_887_7235"><path fill="#fff" d="M0 0h72v72H0z"/></clipPath></defs></svg>