<svg width="48" height="48" fill="none" xmlns="http://www.w3.org/2000/svg"><g clip-path="url(#clip0_708_8174)"><path d="M.5 24C.5 11.042 11.042.5 24 .5S47.5 11.042 47.5 24 36.958 47.5 24 47.5.5 36.958.5 24z" stroke="#785D4C"/><path d="M20.202 33a.903.903 0 01-.644-.27l-6.291-6.4a.938.938 0 010-1.311.9.9 0 011.288 0l5.647 5.744L34.445 16.27a.9.9 0 011.288 0 .938.938 0 010 1.31L20.846 32.729a.896.896 0 01-.644.272z" fill="#785D4C"/></g><defs><clipPath id="clip0_708_8174"><path fill="#fff" d="M0 0h48v48H0z"/></clipPath></defs></svg>