<svg width="97" height="47" fill="none" xmlns="http://www.w3.org/2000/svg"><g clip-path="url(#clip0_494_6716)"><path fill-rule="evenodd" clip-rule="evenodd" d="M15.557 31.291h-4.19c-6.535 0-1.787-13.969 3.715-13.969h6.62c1.06 0 2.932.197 3.854-2.445l1.424-4.104h-9.077c-4.916 0-8.742 1.743-11.507 4.666C1.62 20.442 0 28.256 1.146 31.994c1.088 3.457 4.05 5.734 8.685 5.79l3.603.028h4.441l1.09-3.288c.81-2.333-1.006-3.233-3.408-3.233zm51-5.79l1.368-4.469H53.318c-2.43 0-3.519.675-3.938 2.08l-1.369 4.47H62.62c2.43 0 3.519-.675 3.938-2.08zm-20.724 7.87l-1.369 4.469h14.608c2.401 0 3.519-.674 3.938-2.08l1.368-4.469H49.771c-2.402 0-3.491.675-3.938 2.08zm24.131-18.1l1.369-4.47H56.726c-2.43 0-3.52.675-3.939 2.08l-1.368 4.47h14.607c2.402 0 3.491-.675 3.938-2.08zm-22.064.9c-.615-4.16-2.821-5.37-8.184-5.37h-9.775l-5.698 16.78h3.603c2.15 0 3.24.028 4.385-3.063l2.374-7.196h3.63c3.101 0 2.403 3.907.839 7.701-1.397 3.345-3.826 6.296-6.76 6.296h-6.06c-2.43 0-3.547.675-3.994 2.08l-1.508 4.47h4.44l4.358-.029c3.854-.028 7.01-.309 10.697-3.654 3.91-3.57 8.435-12.732 7.653-18.016zM97 10.772h-8.462l-7.96 8.517c-.922.983-1.872 1.967-2.793 3.12H77.7l3.966-11.637h-6.899l-9.3 27.067h6.898l2.96-8.516L78.4 26.71l2.43 7.701c.754 2.39 1.536 3.429 3.212 3.429h5.279L83.9 22.719 97 10.773z" fill="#00B33C"/></g><defs><clipPath id="clip0_494_6716"><path fill="#fff" d="M0 0h97v47H0z"/></clipPath></defs></svg>