<svg width="87" height="43" fill="none" xmlns="http://www.w3.org/2000/svg"><g clip-path="url(#clip0_494_6437)"><path d="M0 42.993h42.149V0H0v42.993zM85.74.007H44.857V43H87V.007h-1.26z" fill="#0055A5"/><path d="M47.383 40.423h37.085V2.583H47.383v37.84zM3.86 23.561v8.964h1.448v-2.602c.283.25.595.401.93.401.478 0 .871-.257 1.18-.77.347-.573.52-1.418.52-2.523 0-.77-.139-1.465-.41-2.056l-.047-.097-.047-.08-.032-.08-.047-.064-.048-.08-.063-.08-.047-.065-.047-.064-.063-.064-.048-.065-.063-.064-.063-.048-.063-.064-.063-.049-.063-.048-.063-.049-.078-.031-.063-.049-.063-.032-.079-.031-.078-.033-.079-.032-.079-.032-.078-.016-.079-.016-.078-.016-.095-.032h-.078l-.094-.016h-.08l-.095-.016H3.86zm1.37 1.27h.141c.365 0 .649.215.85.626.202.411.3 1.047.3 1.928 0 .475-.058.851-.19 1.108-.126.257-.29.386-.472.386-.176 0-.321-.122-.44-.354-.12-.225-.19-.549-.19-.98v-2.714zm32.713-1.706l-.12.122s-3.029 3.226-3.256 3.47v-3.161H33.15v8.983h1.417V28.85c.038-.044 1.858-2.011 2.066-2.236.013.328.208 5.925.208 5.925h1.448l-.346-9.414zm-6.91.123l-.007.013-.012.006-.013.02-.019.018-.025.026-.025.026-.032.032-.031.033-.038.038-.038.045-.044.045-.044.045-.044.051-.05.052-.057.057-.113.123-.12.128-.126.135-.132.142-.139.147-.145.148-.144.154-.145.16-.296.315-.145.155-.144.148-.139.147-.132.148-.132.135-.12.129-.113.122-.057.057-.05.058-.05.052-.045.051-.044.046-.037.045-.038.038-.038.039-.031.032-.025.026-.026.026-.019.025-.019.013-.012.02v-3.162h-1.424v8.983h1.423v-3.688c.038-.045 1.858-2.012 2.066-2.236l.208 5.924h1.442l-.347-9.415-.113.123zm-8.24 7.062l-.088-.11-.075-.109-.076-.122-.063-.122-.063-.128-.057-.129-.057-.134-.044-.136-.037-.147-.038-.142-.032-.154-.025-.154-.02-.16-.012-.162-.007-.167-.006-.167c0-.944.227-1.696.668-2.249.485-.604 1.19-.906 2.11-.906h.069v-1.567h-.07c-1.435 0-2.538.45-3.287 1.355-.68.816-1.026 1.953-1.026 3.38 0 1.375.378 2.512 1.114 3.367.781.9 1.858 1.362 3.219 1.362h.069v-1.574h-.069c-.893 0-1.599-.309-2.097-.926zm-11.391-6.973c-.762 0-1.37.44-1.811 1.3-.429.849-.646 1.977-.646 3.358 0 1.427.205 2.58.615 3.422.415.86 1.035 1.3 1.842 1.3.825 0 1.477-.465 1.937-1.365.428-.842.645-1.979.645-3.373 0-1.375-.22-2.5-.662-3.342l-.047-.08-.047-.08-.032-.08-.063-.065-.032-.064-.063-.064-.047-.064-.047-.065-.048-.064-.063-.064-.047-.048-.063-.049-.048-.048-.063-.048-.047-.049-.063-.048-.063-.032-.063-.032-.063-.032-.063-.032-.063-.032-.063-.033-.063-.016-.078-.032-.063-.016-.079-.016-.063-.016h-.063l-.079-.016-.078-.016h-.156zm0 1.445c.403 0 .7.293.882.884.176.533.251 1.31.251 2.313 0 .97-.088 1.777-.283 2.393l-.032.065-.015.048-.016.048-.015.049-.016.048-.031.048-.016.049-.032.032-.015.048-.032.033-.016.048-.015.032-.031.032-.032.032-.016.032-.031.016-.016.032-.031.032-.032.016-.031.032-.032.016-.032.015-.016.016-.031.016h-.032l-.032.016-.031.016h-.032l-.031.016H11.4c-.346 0-.608-.302-.803-.9-.202-.623-.3-1.423-.3-2.361 0-.957.098-1.748.3-2.345.183-.571.451-.867.804-.867zm5.931 5.528l-.038-.052-.045-.058-.082-.109-.069-.122-.07-.122-.062-.128-.057-.129-.05-.134-.05-.136-.038-.147-.038-.142-.025-.154-.025-.154-.019-.16-.013-.162-.012-.167v-.167c0-.944.22-1.696.668-2.249.478-.604 1.184-.906 2.103-.906h.076v-1.567h-.076c-1.43 0-2.538.45-3.281 1.355-.687.816-1.026 1.953-1.026 3.38 0 1.375.37 2.512 1.114 3.367.774.9 1.858 1.362 3.219 1.362h.069v-1.574h-.07c-.9 0-1.606-.309-2.103-.926zM3.873 10.384v9.027h1.632v-7.53H7.52v7.53h1.625v-9.027H3.873zm10.267-.236c-.863 0-1.556.443-2.046 1.317-.486.855-.725 1.986-.725 3.373 0 1.433.227 2.606.693 3.454.472.868 1.171 1.301 2.079 1.301.925 0 1.656-.453 2.172-1.365.485-.848.74-1.995.74-3.39 0-1.387-.264-2.525-.755-3.373l-.048-.08-.047-.08-.047-.08-.063-.065-.048-.08-.063-.064-.047-.064-.063-.065-.063-.064-.048-.048-.063-.064-.063-.049-.063-.048-.063-.048-.078-.049-.063-.032-.063-.048-.063-.033-.079-.032-.063-.032-.078-.032-.079-.033-.063-.016-.079-.032-.078-.016-.079-.016-.078-.016-.079-.016h-.173l-.079-.016h-.095zm.017 1.526c.44 0 .752.29.96.868.189.527.283 1.295.283 2.297 0 .957-.11 1.757-.33 2.362-.215.59-.51.867-.913.867h-.142l-.032-.016-.032-.016h-.032l-.032-.016-.03-.016-.032-.016-.032-.016-.032-.016-.032-.032-.03-.016-.033-.032-.031-.016-.016-.032-.032-.032-.031-.033-.016-.032-.032-.032-.032-.049-.015-.032-.032-.032-.016-.049-.03-.048-.016-.033-.016-.064-.032-.048-.016-.048-.015-.049-.032-.048c-.22-.624-.33-1.414-.33-2.346 0-.957.11-1.738.33-2.329.21-.57.503-.85.9-.85zm11.767-1.29v1.497h1.354v7.53h1.631v-7.53h1.373v-1.497h-4.358zm-3.572 3.142h-.887c-.366 0-.643-.084-.813-.25-.126-.116-.183-.277-.183-.483v-2.41h-1.631v2.577c0 .591.233 1.099.686 1.497.447.392 1.002.591 1.638.591h1.19v4.363h1.631v-9.028h-1.631v3.143zm10.055-3.137l-.3 9.028h1.622s.152-4.218.158-4.418h2.03l.473 4.418h1.638l-.756-6.602v-.24l-.016-.081v-.08l-.016-.065v-.08l-.015-.064-.016-.08-.015-.065-.016-.064-.016-.064-.015-.064-.032-.065-.016-.064-.015-.064-.032-.064-.032-.049-.032-.064-.015-.048-.032-.064-.032-.049-.047-.048-.032-.064-.032-.033-.047-.064-.032-.032-.047-.049-.047-.048-.048-.032-.031-.049-.063-.048c-.41-.328-.964-.482-1.67-.482h-2.406zm1.559 1.494h.582c.422 0 .706.138.882.401.145.219.242.636.3 1.221h-1.812v-.257l.016-.048v-.642l.016-.065v-.466l.015-.032v-.112z" fill="#fff"/><path d="M57.625 13.898l.057.135.07.129.068.134.082.142.044.064.05.07.045.071.05.071.057.07.056.071.056.07.064.072.069.077.07.07.069.078.075.077.082.077.082.077.088.077.095.084.094.077.1.083.102.083.106.09.12.084.114.09.126.083.126.09c.308.219.661.675.397 1.311-.265.643-.756 1.542-.46 1.896.296.353 1.341.533 2.198.186 0 0 .183.553.498.906 0 0-.151.302-.642.147 0 0 .182.457-.07.945 0 0-.573-.103-.825-.642 0 0-.227.424-.687.571 0 0-.377-.199-.295-.97 0 0-.278.688-1.134.804 0 0-.491-.636.151-1.491 0 0-.466.417-1.297.218 0 0-.139-.437.623-1.04 0 0-.856-.04-1.184-.772 0 0 .359-.456 1.247-.353 0 0-.825-.187-1.007-1.19 0 0 .592-.385 1.536.232 0 0-.163-.321-.56-.642-.398-.307-.876-1.2-.706-2.512zm3.438 10.121l-.025-.032-.019-.032-.025-.032-.019-.033-.019-.032-.019-.031-.018-.026-.02-.032-.018-.032-.019-.033-.013-.032-.019-.031-.012-.026-.02-.032-.012-.032-.013-.033c.152 1.221.202 2.043.844 2.834 0 0 .398-.527.139-1.812a1.296 1.296 0 01-.347-.167s.151.52.057 1.047c0 0-.233-.174-.403-1.401zm-1.12-.129l-.006-.006-.006-.013-.006-.012-.013-.007-.006-.013-.012-.012-.007-.013-.013-.013-.006-.013-.013-.019-.019-.026-.018-.032-.026-.032-.018-.032-.02-.032-.025-.032-.018-.032-.019-.026-.02-.032-.005-.019-.007-.013-.012-.013-.006-.013c-.057.707-.24 2.57.378 3.156 0 0 .415-.316.566-3.033-.088.154-.245.314-.321.404 0 0 .1.861-.202 1.471 0 0-.303-.238-.12-1.543zm-1.457 1.427l.044-.058.044-.07.045-.078.044-.083.038-.084.038-.09.031-.096.038-.096.032-.103.031-.103.025-.103.025-.109.05-.212.02-.103.025-.103.019-.103.012-.096.02-.096.012-.096.013-.09.012-.084.013-.077.006-.07.007-.071.006-.058.006-.026v-.026l.006-.025v-.039l.007-.013v-.051c.069-.045.144-.102.214-.16.032-.026.057-.046.088-.078 0 .07 0 .142.006.213-.075 1.13-.164 2.3-.51 2.884-.34.573-.964.868-.964.868-.585-1.067.12-2.493.712-3.489a1.71 1.71 0 00.227-.096c-.215.764-.606 1.67-.442 2.37zm-1.454-3.271v.09l.007.019v.039l.006.006v.031l.006.013v.019l.006.007v.019l.007.007v.019l.006.006c.006.013.012.045.025.078-.491.482-.857.957-1.58 1.985a2.594 2.594 0 01-1.884 1.073c.113-.836.334-1.498.95-2.204.612-.713 1.405-1.363 1.985-1.793.151.07.346.116.592.084.013 0 .038-.007.057-.007a.907.907 0 00-.151.302c-.441.257-1.713.919-2.23 1.98 0 .001.806-.257 2.198-1.773zm-.914-1.034l.05-.096a.513.513 0 01.05-.078c-.478.187-2.166.836-2.714 1.125-.542.29-1.335.944-1.764 2.281 0 0 1.14.103 2.085-.694.938-.79 2.034-1.902 2.501-2.255a.614.614 0 01-.107-.122s-1.273 1.15-2.62 1.645c0 0 .29-.527.818-.919.65-.47 1.134-.624 1.7-.887zm-.963-.791l.006-.013.006-.019.007-.019.006-.013.006-.019.006-.02.007-.006v-.006l.006-.007.006-.013c-.56.122-1.953.289-2.576.482-.624.193-1.745.662-2.412 1.96 0 0 .982.309 2.828-.578 1.852-.887 2.431-1.073 2.784-1.17a1.267 1.267 0 01-.586-.18c-.737.335-1.72.733-2.702.759 0 0 .485-.347.989-.566.554-.238 1.159-.45 1.619-.572zm.045-.938l.03.019.032.013.031.013.038.02.031.005.032.013.03.013.032.007.032.013.038.006.032.007.038.007.018.006h.019l.019.007h.038l.025.007h.019l.019.006a1.584 1.584 0 00-.36.334c-.654.193-1.763.399-3.596.534-1.833.141-2.809-.205-2.809-.205.636-.399 1.657-.804 2.343-.939.693-.135 2.501-.115 3.288-.231.013.013.114.09.271.187-.674.064-2.09.128-2.828.5 0-.001 1.355.185 3.138-.342zm-.14-1.073l.02-.013.018-.006.019-.013.019-.006.019-.013.019-.007.019-.013.025-.013.018-.006.02-.013.025-.007.025-.013.019-.012.025-.007.025-.013.025-.006c-.926-.283-2.198-.746-4.112-.874-1.405-.096-2.426-.013-2.948.128 0 0 1.278.92 2.746 1.247 1.461.321 2.651.116 3.514.122.063-.09.127-.18.227-.283-1.014.006-2.708-.257-3.313-.463 0 .002 1.475-.32 3.546.284zm0-1.112v.014l.007.006v.013l.006.012v.02l.006.02.007.019.012.025.006.02.013.032.013.026.012.026.013.032.019.032.019.033.018.032.025.032.02.039.025.032.03.032.032.039.032.032.031.039.038.032.038.032.044.033.044.038.05.026.044.032.057.032.057.026c-1.304-.579-3.874-.913-5.247-1.504-1.865-.784-2.205-1.773-2.205-1.773 1.613-.046 2.916.36 3.918.675 1.184.366 2.973 1.047 3.596 1.336a1.275 1.275 0 00-.705.225c-.876-.34-1.285-.488-2.085-.72-.624-.18-1.09-.212-1.48-.25 0 0 .554.372 1.46.668.903.293 1.294.344 2.03.485zm-.1-1.452l.007.007.006.012.006.013.007.007.006.013.006.013.006.013.013.012.006.013.006.013.013.02.006.012.019.032.025.026.019.032.019.026.006.02.013.012.006.013.012.013.007.013.012.012.007.013.006.013.007.007.005.013.007.006.007.013c-2.06-.353-4.328-1.94-5.026-2.93-.7-.983-.498-2.454-.498-2.454.68.14 2.154 1.439 2.532 1.83.384.386 1.543 1.537 2.343 2.18l.245.732a81.146 81.146 0 00-2.003-1.574c-.39-.302-.976-.72-1.55-.926 0 0 .53.707.965 1.054.498.405 1 .752 1.417.984.372.204.561.326 1.31.692z" fill="#0055A5"/><path d="M60.767 21.532l.012-.013.013-.013.006-.006.012-.013.013-.013.013-.006.006-.013.013-.007.006-.013.013-.013.006-.006.012-.013.007-.007.013-.013.006-.006.013-.013c.095.128.409.533.567.938.12.34.245.81.309 1.073.063.276.245.828.365 1.021 0 0-.504.071-.876-.379-.365-.43-.485-.867-.548-1.317a5.154 5.154 0 01.019-1.168zm-.793.065l.012.012.006.013.013.007.006.013.006.013.012.006.006.006.007.013.012.006.006.006.006.007.007.013.012.006.006.007h.006l.007.006.007.006.006.007.006.006h.006v.007h.007l.006.006h.006v.006h.006v.007h.007v.006l.075.033.07-.02c.063-.026.12-.051.17-.07.075.2.1.302.126.482.019.231.069.598-.019.9-.107.366-.321.584-.44.732 0 0-.328-.373-.422-.674a1.756 1.756 0 01-.013-1.067c.07-.206.177-.392.266-.501zm-1.127.031l.031-.006h.032l.025-.007.031-.006.056-.013.058-.013.056-.019.057-.013.05-.02.05-.018.044-.026.045-.019.05-.026.038-.02.044-.025.038-.025.037-.026.038-.026a.862.862 0 01.063.507 1.286 1.286 0 01-.435.675c-.34.277-.787.534-1.29.45 0 0-.113-.38.882-1.324zm-.379-.636l.007.033v.032l.006.026.006.032.006.026.007.026.006.032.007.026.012.025.007.02.006.026.012.025.007.02.012.02.006.018.007.02.013.019.006.02.006.012.013.013.006.02.006.012.007.007.006.013.006.012.007.006.006.007.006.007.006.007v.006h.007v.007c-.12.141-.542.88-1.424.758 0 0-.239-.508.347-.906.396-.279.591-.33.862-.427zm.075-.636l-.044.013-.044.013-.05.007-.05.006-.05.007-.051.007h-.056l-.057.006h-.057l-.063-.006h-.056l-.032-.007h-.03l-.039-.007h-.03l-.032-.006-.032-.007-.031-.007-.038-.006-.031-.007-.038-.013-.1-.019-.032-.103c-.447.38-.989.443-1.172.784 0 0 .227.424.812.347a1.939 1.939 0 001.342-.751c.004-.058.03-.167.061-.25zm-1.013-.526l.012-.026.02-.026.012-.026.013-.032.018-.026.013-.032.018-.032.013-.032.02-.033.018-.038.012-.02.013-.012.006-.02.013-.02.013-.018.012-.013.013-.02.013-.019.019-.019.012-.019.02-.02.012-.012a2.86 2.86 0 00-1.19.013c-.542.102-1.097.231-1.374 1.066 0 0 .346.309.983.174.529-.109.995-.347 1.265-.739zm-.233-.913l-.025-.026-.025-.019-.025-.026-.025-.025-.02-.026-.025-.032-.025-.026-.019-.026-.025-.032-.018-.032-.026-.033-.019-.032-.019-.039-.018-.032-.02-.039-.018-.038-.044-.103c-.466-.193-.958-.296-1.436-.116-.479.186-.605.399-.725.579 0 0 .53.456 1.14.475.611.014 1.171-.166 1.417-.352zm.144-.983l.013-.007.018-.006.013-.007h.019l.012-.006.02-.007.012-.006.02-.007h.018l.02-.007.018-.007h.012l.019-.006.02-.007h.018l.019-.007a1.73 1.73 0 01-.51-.9c-.215.052-.731.052-.951-.032-.227-.09-.668-.096-1.015.142 0 0 .114.61.895.822.737.202 1.008.15 1.31.048zm-.284-1.202l.101-.07c.013-.007.19-.116.491-.136-.251-.199-.856-.713-1.278-.95-.46-.264-1.228-.624-1.625-.676 0 0 .372.983.793 1.382.448.412.756.566 1.518.45zm.789-.456l-.032-.046-.03-.05-.039-.052-.032-.052-.025-.058-.03-.057-.032-.058-.025-.065-.026-.064-.03-.064-.026-.065-.02-.07-.024-.07-.026-.072-.018-.077-.019-.07c-.095-.335-.296-1.144-.416-1.363-.119-.212-.554-.944-1.398-1.176 0 0-.22.957.202 1.728.364.657 1.113 1.351 2.046 1.8zm4.692 4.484l.025.02.019.02.02.019.018.013.019.02.019.012.019.02.018.012.02.013.025.02.012.007.013.006.012.007.013.013.013.006.012.007.02.006.012.013.013.007.018.007.019.012.013.007s.27.527-.057 1.157a15.909 15.909 0 00-.73 1.645s-.177-.026-.372-1.022c-.132-.668-.296-.842-.472-1.066.189.096.34.121.36.121l.125.033.063-.129c.114-.225.145-.443.145-.623 0-.065 0-.122-.007-.174a.625.625 0 00.53-.225c.005-.012.012-.012.012-.019l.031.036z" fill="#0055A5"/><path d="M55.458 13.153v.303l.019.238c-.504-.65-1.102-1.433-1.67-2.16-.39-.494-.717-.79-1.09-1.034.316.918.87 1.652 1.26 2.011.391.366.958.983 1.512 1.363l.05.18c.044.173.107.346.195.514.14.23.303.456.504.68a6.97 6.97 0 00-.529-.25l-.176-.077c-1.518-.816-3.03-2.525-3.634-3.707-.61-1.19-.36-2.564-.202-3.303.693.598 1.695 1.774 2.123 2.41.536.784 1.216 1.902 1.638 2.808v.024zM76.79 18.21l-.018-.013-.013-.006-.018-.013-.02-.006-.018-.013-.025-.007-.02-.013-.018-.013-.019-.006-.025-.013-.019-.007-.025-.013-.025-.012-.025-.007-.026-.013-.025-.006c.932-.283 2.205-.746 4.126-.874 1.404-.096 2.412-.013 2.941.128 0 0-1.285.92-2.746 1.247-1.461.321-2.652.116-3.521.122-.057-.09-.12-.18-.22-.283 1.013.006 2.701-.257 3.313-.463 0 .002-1.475-.32-3.553.284zm.006-1.112v.014l-.006.006v.013l-.006.012-.007.02v.02l-.012.019-.007.025-.006.02-.013.032-.012.026-.013.026-.019.032-.013.032-.018.033-.02.032-.025.032-.025.039-.025.032-.025.032-.032.039-.031.032-.038.039-.038.032-.037.032-.038.033-.05.038-.044.026-.05.032-.051.032-.057.026c1.304-.579 3.867-.913 5.253-1.504 1.858-.784 2.199-1.773 2.199-1.773-1.613-.046-2.923.36-3.924.675-1.178.366-2.966 1.047-3.596 1.336.24.007.498.071.711.225.876-.34 1.285-.488 2.079-.72.63-.18 1.09-.212 1.48-.25 0 0-.548.372-1.455.668-.908.293-1.299.344-2.029.485zm.101-1.452v.007l-.006.013-.007.012-.006.007-.012.013-.006.013-.007.013-.006.012-.012.013-.007.013-.019.033-.019.032-.025.026-.019.032-.019.025-.006.02-.012.013-.007.013-.012.012-.007.013-.012.013-.006.013-.007.013-.006.006-.006.013-.013.007-.006.013c2.06-.354 4.327-1.94 5.026-2.93.706-.983.504-2.455.504-2.455-.68.142-2.154 1.44-2.538 1.831-.378.386-1.537 1.536-2.337 2.179l-.245.732c.68-.559 1.493-1.182 1.996-1.574.397-.302.97-.72 1.556-.925 0 0-.536.707-.964 1.054a10.34 10.34 0 01-1.423.983c-.366.204-.561.326-1.305.692zm-.497-2.493v.303l-.02.237c.498-.649 1.096-1.432 1.663-2.159.396-.494.724-.79 1.09-1.035-.31.919-.864 1.652-1.254 2.012-.39.366-.958.983-1.512 1.362l-.05.18c-.05.174-.114.347-.202.514a4.303 4.303 0 01-.498.681 6.01 6.01 0 01.53-.25l.17-.077c1.518-.816 3.03-2.525 3.634-3.708.623-1.189.365-2.563.201-3.302-.693.597-1.688 1.773-2.116 2.41-.535.784-1.216 1.902-1.638 2.808v.024h.001zm-18.997 9.368l-.063.065-.063.064-.07.071-.068.077-.076.077-.075.083-.076.09-.075.09-.082.097-.082.096-.075.103-.082.103-.076.109-.081.115-.076.116-.075.116-.07.122-.068.122-.07.122-.063.129-.063.128-.05.136-.05.128-.051.141-.038.135-.038.135-.025.142-.025.14-.013.142-.006.148-.006.141.013.148s1.222-.392 1.732-1.31c.504-.913.812-1.498 1.027-1.704-.139.02-.278.02-.404 0l-.113-.019c-.315.579-.932 1.53-1.486 1.858 0 0-.139-.771 1.493-2.326a1.6 1.6 0 01.1-.213 1.284 1.284 0 01-.51.077m16.808-8.617l-.063.135-.07.129-.068.134-.082.142-.044.064-.044.07-.05.071-.051.071-.05.07-.057.071-.063.07-.063.072-.063.077-.07.07-.069.078-.075.077-.083.077-.081.077-.088.077-.095.084-.094.077-.1.083-.101.083-.107.09-.114.084-.119.09-.126.083-.126.09c-.315.219-.662.675-.397 1.311.265.643.756 1.542.46 1.896-.296.353-1.348.533-2.205.186 0 0-.182.553-.491.906 0 0 .151.302.642.147 0 0-.183.457.07.945 0 0 .573-.103.818-.642 0 0 .227.424.686.571 0 0 .384-.199.297-.97 0 0 .277.688 1.14.804 0 0 .49-.636-.152-1.491 0 0 .46.417 1.298.218 0 0 .132-.437-.624-1.04 0 0 .856-.04 1.184-.772 0 0-.365-.456-1.253-.353 0 0 .825-.187 1.008-1.19 0 0-.592-.385-1.531.232 0 0 .164-.321.56-.642.391-.307.87-1.2.706-2.512zm-3.438 10.121l.025-.032.02-.032.018-.032.025-.033.02-.032.018-.031.018-.026.02-.032.018-.032.013-.033.019-.032.013-.031.018-.026.013-.032.012-.032.013-.033c-.145 1.221-.195 2.043-.844 2.834 0 0-.39-.527-.139-1.812.114-.032.227-.083.347-.167 0 0-.145.52-.057 1.047 0 0 .234-.174.41-1.401zm1.116-.129l.012-.006.007-.013.006-.012.007-.007.012-.013.006-.012.013-.013.006-.013.013-.013.006-.019.025-.026.019-.032.019-.032.025-.032.019-.032.019-.032.019-.032.019-.026.018-.032.013-.019.006-.013.007-.013.006-.013c.057.707.24 2.57-.372 3.156 0 0-.421-.316-.567-3.033.089.154.246.314.315.404 0 0-.1.861.202 1.471 0 0 .309-.238.12-1.543zm1.46 1.427l-.05-.058-.043-.07-.045-.078-.038-.083-.044-.084-.03-.09-.038-.096-.032-.096-.031-.103-.032-.103-.025-.103-.032-.109-.044-.212-.025-.103-.02-.103-.018-.103-.013-.096-.018-.096-.013-.096-.012-.09-.013-.084-.013-.077-.006-.07-.006-.071-.007-.058-.006-.026v-.026l-.006-.025v-.039l-.006-.013v-.051a1.731 1.731 0 01-.215-.16c-.031-.026-.063-.046-.088-.078 0 .07 0 .142-.012.213.081 1.13.17 2.3.516 2.884.34.573.964.868.964.868.586-1.067-.12-2.493-.718-3.489a1.674 1.674 0 01-.22-.096c.206.764.597 1.67.44 2.37zm1.455-3.271v.09l-.007.019v.038l-.006.007v.025l-.006.006v.027l-.006.006v.018l-.007.007v.026l-.006.006c-.006.013-.012.045-.025.078.491.482.857.957 1.58 1.985.725 1.034 1.884 1.073 1.884 1.073-.113-.836-.34-1.498-.957-2.204-.611-.713-1.404-1.363-1.978-1.793-.151.07-.346.116-.592.084-.025 0-.038-.007-.056-.007a.905.905 0 01.15.302c.435.257 1.714.919 2.23 1.98 0 .001-.806-.257-2.198-1.773zm.915-1.034l-.05-.096a.512.512 0 00-.051-.078c.472.187 2.16.836 2.708 1.125.548.29 1.335.944 1.764 2.281 0 0-1.14.103-2.079-.694-.938-.79-2.034-1.902-2.507-2.255a.501.501 0 00.114-.122s1.272 1.15 2.62 1.645c0 0-.29-.527-.825-.919-.643-.47-1.128-.624-1.694-.887zm.962-.791l-.007-.013-.006-.019-.006-.019-.013-.013-.006-.019-.007-.02-.006-.012-.006-.02c.554.123 1.952.29 2.576.483.617.193 1.745.662 2.412 1.96 0 0-.982.309-2.834-.578-1.845-.887-2.425-1.073-2.778-1.17a1.26 1.26 0 00.586-.18c.737.335 1.72.733 2.702.759 0 0-.485-.347-.995-.566a12.202 12.202 0 00-1.612-.573zm-.044-.938l-.031.019-.032.013-.038.013-.032.02-.03.005-.032.013-.032.013-.031.007-.032.013-.038.006-.03.007-.039.007-.037.006-.019.007h-.044l-.019.007h-.02l-.024.006c.126.084.252.193.365.334.649.193 1.758.399 3.59.534 1.833.141 2.81-.205 2.81-.205-.637-.399-1.657-.804-2.344-.939-.686-.135-2.494-.115-3.288-.231-.012.013-.1.09-.264.187.668.064 2.09.128 2.822.5-.001-.001-1.349.185-3.131-.342z" fill="#0055A5"/><path d="M71.084 21.532l-.019-.026-.012-.006-.013-.013-.013-.013-.006-.006-.012-.013-.007-.007-.012-.013-.006-.013-.013-.006-.007-.013-.012-.007-.007-.013-.012-.006-.006-.013c-.101.128-.416.533-.574.938-.113.34-.246.81-.302 1.073-.07.276-.252.828-.365 1.021 0 0 .497.071.869-.379.365-.43.498-.867.548-1.317.044-.352.032-.84-.019-1.168zm.794.065l-.006.012-.013.013-.006.007-.006.013-.013.013-.007.006-.005.006-.013.013-.007.006-.006.006-.006.007-.013.013-.006.006-.006.007h-.007l-.006.006-.006.006-.006.007-.007.006h-.006l-.006.007h-.006l-.007.006-.006.006h-.007v.007h-.012v.006l-.063.033-.076-.02a1.742 1.742 0 00-.17-.07c-.07.2-.1.302-.12.482-.025.231-.069.598.02.9.106.366.314.584.434.732 0 0 .333-.373.421-.674.101-.315.139-.688.013-1.067a1.454 1.454 0 00-.264-.501zm1.133.031l-.031-.006h-.032l-.031-.007-.032-.006-.056-.013-.057-.013-.056-.019-.05-.013-.051-.02-.05-.018-.05-.026-.045-.019-.043-.026-.045-.02-.038-.025-.044-.025-.038-.026-.031-.026c-.044.116-.113.283-.063.507.05.232.208.495.434.675.334.277.787.534 1.285.45 0 0 .12-.38-.876-1.324zm.379-.636l-.006.033-.007.032-.006.026v.032l-.006.026-.006.026-.013.032-.007.026-.005.025-.007.02-.013.026-.006.025-.006.02-.013.02-.006.018-.013.02-.006.019-.007.02-.012.012-.006.013-.007.02-.006.012-.012.007-.007.013-.006.012-.007.006v.007l-.006.007-.006.007v.006h-.006v.007c.113.141.541.88 1.423.758 0 0 .233-.508-.353-.906-.396-.279-.585-.33-.856-.427zm-.083-.636l.043.013.05.013.051.007.05.006.051.007.05.007h.057l.056.006h.057l.063-.006h.057l.063-.007.031-.007h.038l.031-.006.032-.007.031-.007.038-.006.031-.007.032-.013.1-.019.039-.103c.447.38.988.443 1.171.784 0 0-.227.424-.813.347a1.939 1.939 0 01-1.34-.751 1.904 1.904 0 00-.07-.25zm1.022-.526l-.007-.013-.006-.013-.02-.026-.012-.026-.012-.032-.019-.026-.013-.032-.018-.032-.02-.032-.012-.033-.019-.038-.012-.02-.013-.012-.006-.02-.013-.02-.013-.018-.012-.013-.013-.02-.012-.019-.02-.019-.012-.019-.019-.02-.012-.012a2.849 2.849 0 011.19.013c.542.102 1.096.231 1.373 1.066 0 0-.353.309-.983.174-.529-.109-1-.347-1.265-.739zm.226-.913l.025-.026.025-.019.025-.026.026-.025.025-.026.025-.032.019-.026.025-.026.019-.032.025-.032.02-.033.018-.032.019-.039.019-.032.018-.039.02-.038.043-.103c.472-.193.958-.296 1.436-.116.479.186.605.399.724.579 0 0-.529.456-1.133.475-.611.014-1.178-.166-1.423-.352zm-.14-.983l-.03-.013-.02-.007h-.012l-.02-.006-.012-.007-.019-.006-.019-.007h-.018l-.013-.007-.019-.007h-.019l-.018-.006-.02-.007h-.018l-.02-.007c.215-.186.41-.468.511-.9.227.052.73.052.957-.032.227-.09.668-.096 1.014.142 0 0-.113.61-.9.822-.731.202-1.008.15-1.305.048zm.278-1.202l-.1-.07c-.013-.007-.19-.116-.486-.136.252-.199.851-.713 1.273-.95.466-.264 1.234-.624 1.625-.676 0 0-.366.983-.794 1.382-.44.412-.75.566-1.518.45zm-.787-.456l.038-.046.032-.05.031-.052.032-.052.031-.058.031-.057.032-.058.025-.065.025-.064.032-.064.025-.065.025-.07.019-.07.025-.072.019-.077.025-.07c.082-.335.29-1.144.41-1.363.119-.212.554-.944 1.398-1.176 0 0 .22.957-.202 1.728-.37.657-1.12 1.351-2.053 1.8zM69.22 20.76l-.025.02-.02.02-.018.019-.019.013-.019.02-.019.012-.018.02-.02.012-.024.013-.025.02-.007.007-.013.006-.012.007-.013.013-.019.006-.012.007-.013.006-.012.013-.019.007-.013.007-.019.012-.018.007s-.265.527.056 1.157c.328.636.605 1.285.737 1.645 0 0 .176-.026.372-1.022.132-.668.302-.842.472-1.066a1.252 1.252 0 01-.359.121l-.126.033-.063-.129a1.313 1.313 0 01-.139-.797.615.615 0 01-.529-.225c-.006-.012-.006-.012-.019-.019l-.025.036z" fill="#0055A5"/><path d="M74.453 22.521l.063.065.063.064.069.071.069.077.076.077.069.083.082.09.075.09.082.097.076.096.082.103.082.103.075.109.076.115.082.116.07.116.075.122.069.122.069.122.063.129.056.128.057.136.05.128.044.141.044.135.032.135.031.142.025.14.013.142.006.148v.141l-.006.148s-1.229-.392-1.732-1.31c-.504-.913-.813-1.498-1.026-1.704.132.02.27.02.403 0l.113-.019c.315.579.926 1.53 1.48 1.858 0 0 .145-.771-1.486-2.326a1.173 1.173 0 00-.107-.213c.151.058.321.084.517.077m-9.465-12.407v-.013l.006-.013.006-.007.006-.012.013-.007.013-.013.012-.007.019-.013.019-.006.019-.013.025-.007.025-.006.025-.013.031-.007.032-.006.031-.007.032-.007.031-.006.038-.006.038-.007.038-.007.044-.006.037-.007h.044l.045-.006.043-.007h.094l.044-.007h.145c.53 0 .958.096.958.213 0 .109-.428.205-.957.205-.528.003-.956-.093-.956-.202zm-3.259 1.124v-.007l.007-.006v-.007l.006-.006.007-.006.012-.007h.006l.013-.007.012-.006.013-.007h.013l.019-.007.018-.007.013-.006h.025l.02-.007h.018l.025-.006.025-.007h.019l.025-.006h.057l.025-.007h.057l.031-.007h.157c.334 0 .617.052.617.116s-.283.109-.617.109c-.345.003-.622-.042-.622-.106zm4.404-.675v.046l-.006.006v.013l-.006.007v.013l-.007.007v.006l-.006.007-.006.013-.007.006-.006.007-.006.007-.006.006-.007.007-.006.007-.006.007-.006.006-.007.006h-.006l-.013.007-.006.006h-.006l-.013.007h-.019l-.006.006h-.032a.193.193 0 010-.386.185.185 0 01.19.183zm-1.216-.655l-.03-.077-.026-.07-.031-.065-.025-.07-.026-.064-.025-.07-.031-.065-.02-.058-.024-.064-.026-.059-.018-.058-.025-.057-.02-.058-.018-.052-.019-.051-.019-.052-.019-.05-.012-.046-.013-.045-.019-.045-.013-.039-.012-.038-.006-.039-.013-.038-.006-.033-.006-.032-.007-.032-.006-.026-.006-.025v-.065c.006-.115.139-.2.264-.238.132-.038.24-.051.328.013.164.135.321 1.176.371 1.613a1.447 1.447 0 00-.442.155zm.587-.167l.013-.007h.043l.032-.007h.094l.063-.007a12.662 12.662 0 00-.277-1.38c-.082-.277-.189-.47-.365-.521 0 0 .139.379.214.77.076.394.126.779.183 1.152zm-1.015 1.387l.038-.006.032-.013.031-.013.032-.013.031-.013.038-.02.031-.012.032-.02.031-.02.025-.018.032-.02.031-.02.025-.018.032-.02.025-.019.025-.026.025-.019.02-.02.025-.019.019-.012.018-.02.02-.018.018-.013.02-.02.012-.012.012-.007.006-.013.013-.013.006-.006h.007v-.006c-.566.084-.711.47-.711.47z" fill="#0055A5"/><path d="M65 11.09l-.051.026-.044.02-.044.026-.05.02-.045.019-.044.019-.05.012-.044.02-.044.012-.044.007-.044.013-.044.013-.038.006-.044.007-.038.006-.037.007h-.038l-.032.007h-.03l-.032.006h-.203c.107-.2.208-.385.51-.604.309-.225.807-.282 1.002-.257-.045.153-.247.474-.474.616zm-.11.263c-.364.174-1.498.193-2.11.225h-.393l-.047-.016h-.063l-.048-.016h-.047l-.047-.016-.048-.016h-.047l-.047-.016h-.048l-.047-.016h-.031l-.048-.016-.03-.015h-.032l-.031-.017-.032-.015h-.047l-.016-.016h-.015l-.032-.016h-.016c.07 1.362.977 1.446.977 1.446-.013-.11 0-.29 0-.29.283.27.866.466.866.466a1.018 1.018 0 00-.063-.305c.246.147.394.144.394.144-.026-.193-.142-.417-.142-.417.17.224.378.24.378.24.038-.108-.032-.385-.032-.385.088.11.252.399.756.514.516.11.74-.192.74-.192-.491.032-.96-.45-.96-.45a.707.707 0 00.362-.29c-.158-.134-.315-.144-.315-.144.29-.137.362-.371.362-.371zm-1.731.514v.048s-.788.003-.82.402c-.125-.084-.188-.238-.22-.418 0 0 .561.032 1.04-.032zm-1.731-.391l.006.058.007.052.006.058.007.051.006.058.012.051.013.051.012.052.013.051.013.052.012.044.02.046.012.045.02.045.018.039.019.038s-.359-.27-.447-.507c-.089-.239-.114-.393.251-.284zm-1.056.262a.522.522 0 00-.394.225c-.183.276-.116.803.268 1.028 0 0 .576-.511 1.275-.016 0 0 .154-.093.52-.177v-.016h-.016v-.016l-.015-.016-.016-.016h-.016v-.015l-.015-.016-.016-.016-.016-.016-.015-.016-.016-.016h-.017l-.015-.033h-.016l-.015-.032h-.016l-.016-.016-.03-.016-.017-.016-.015-.016-.031-.016-.016-.015-.016-.016-.031-.016h-.017l-.032-.016-.015-.016c-.215-.096-.655-.232-.787-.643a1.242 1.242 0 00-.426-.034zm.33.546c.083 0 .159.077.159.161v.032h-.016v.032h-.016v.032h-.015v.016h-.016v.015h-.031v.017h-.033l-.016.015h-.015c-.082 0-.142-.077-.142-.16s.06-.16.142-.16zm1.419.606l.006.006.007.007v.006h.006l.006.013.006.007.013.013.007.02.012.012.013.013.012.019.013.02.02.012.012.02.018.019.013.026.02.019.037.038.031.039.038.045.019.02.019.019.018.019.02.02.018.012.019.02.019.012.019.02s-.945-.014-1.178.822c0 0-.322-.514-.088-.842.252-.354.491-.405.825-.476z" fill="#0055A5"/><path d="M63.154 13.089l.007.006h.012l.006.007h.02l.012.007.013.006h.012l.02.006.012.007h.019l.012.007.02.007.03.006.033.013.037.006.013.006.019.007.012.007h.019l.012.007.013.006h.013l.012.007h.013l.012.006s0-.18-.006-.263c.095.02.202.052.303.065 0 0 .302.68.541.957 0 0 .013.16-.12.385 0 0-.175-.398-.478-.732-.17-.183-.284-.28-.643-.536zm-.801-.142h.007l.013.007h.018l.013.007.02.006.018.006.025.007.019.006.025.013.025.006.026.007.031.013.026.007.03.012.026.013.031.013.063.026.063.025.063.026.057.026.03.02.033.012.025.013.031.02.025.012.025.013.026.019.018.013c.297.218.498.462.466.893 0 0-.233-.34-.498-.495a2.834 2.834 0 01-.78-.746zm.008-3.123h.019l.007.007h.031l.013.007h.019l.012.007h.013l.006.006h.013l.012.007.013.007.006.006.013.006.006.007.013.007.006.006.012.007.007.007.006.007.006.012.006.007.007.013.006.006v.013l.007.007v.02l.006.006v.02c0 .148-.227.502-.29.656-.063-.154-.283-.508-.283-.656 0-.148.17-.192.258-.192h.05v-.006zm-.195 1.151l-.006-.026-.007-.019v-.026l-.006-.025-.007-.026-.006-.026-.006-.032v-.026l-.006-.032-.007-.032-.013-.064-.018-.065-.013-.07-.012-.065-.013-.032-.007-.032-.006-.026-.012-.032-.006-.026-.013-.025-.006-.026-.013-.026-.012-.026-.006-.019-.013-.02-.013-.019-.012-.012-.007-.013a.553.553 0 00-.384-.116.167.167 0 00-.144.218c.038.122.428.72.478.79.088-.011.069-.011.296-.024zm.34 0l.006-.026.007-.019v-.026l.006-.025.006-.026.006-.026.007-.032.006-.026.006-.032.006-.032.013-.064.012-.065.013-.07.02-.065.005-.032.007-.032.012-.026.007-.032.012-.026.006-.025.013-.026.006-.026.013-.026.006-.019.012-.02.013-.019.013-.012.006-.013a.545.545 0 01.384-.116.17.17 0 01.145.218c-.038.122-.428.72-.479.79-.087-.011-.074-.011-.295-.024zm.252-1.87h-.302v-.34h-.245v.34h-.303v.219h.303v.398h.245v-.398h.302v-.219zm-3.671 2.205v-.097l.005-.026v-.045l.007-.013v-.013c.019-.167.025-.314.006-.43-.22.084-.372.141-.667.636 0 0 .478-.302.648-.013z" fill="#0055A5"/><path d="M59.502 12.1v-.014l.006-.02v-.045l.006-.019v-.019l.006-.025.007-.02v-.025l.006-.02.007-.025v-.026l.006-.026.006-.032.007-.026.012-.051.013-.058.019-.058.012-.058.02-.058.018-.058.02-.057.005-.026.013-.026c.126-.334.044-.822-.101-1.111-.139-.29-.22-.56-.196-.855 0 0-.283.096-.447.2-.025.346.17.687.265.88.107.231.088.527.063.713-.038.315.025.65.227.964zm.03-2.629v-.019h-.007v-.105l.007-.007v-.033l.006-.006v-.013l.006-.006s.447-.443.819-.521a.521.521 0 01.46.116s-.14-.013-.335.154c-.201.16-.447.366-.642.418-.181.048-.226.035-.314.022zm1.322-.552l.032.032.031.032.032.032.025.033.032.032.025.033.006.012.012.02.013.012.013.02.006.019.013.013.006.02.013.012.006.013.007.02.006.012.006.02.006.012.007.02.006.012v.02l.006.012v.046c-.006.16-.189.571-.29.725-.094.155-.233.36-.22.604.006.129.094.258.195.36 0 0-.548-.134-.61-.475-.063-.309.063-.527.15-.7.083-.161.341-.534.397-.688.063-.143.089-.258.07-.335zm3.201 3.881l.019.07.025.077.025.07.025.072.026.07.031.071.032.071.03.064.033.065.03.07.033.064.03.058.039.065.03.058.033.057.037.052c.164.263.265.7.252.848 0 0 .246-.56.12-.951-.094-.309-.365-.758-.85-.951zm.611.128h.05l.013.007h.07l.018.007h.038l.025.006h.019l.025.007h.02l.024.007.025.006.02.007.024.006h.019l.025.013.02.007.025.006.018.007.02.013.018.006.019.013.019.007c.227.154.44.482.523.88 0 0-.385-.064-.567-.257-.189-.189-.416-.478-.51-.748zm-1.941.694h-.037l-.013.006h-.019l-.012.007h-.025l-.013.007-.025.006-.025.007h-.026l-.025.006-.025.007-.025.007-.013.006h-.012l-.013.007h-.013l-.006.007h-.025l-.006.006s.321.096.479.226c.132.115.252.295.308.59.082.418.322.868.39 1.003l.033-.006c-.05-.29.126-.88.176-.964 0 0-.259-.167-.371-.334-.09-.125-.235-.33-.657-.594zm1.664.893l.013.02.006.02.013.025.012.026.013.02.006.025.013.032.019.026.012.026.013.032.025.058.025.058.007.032.013.033.012.038.006.032.013.033.006.032.006.038.007.033.006.038.006.039v.109l-.006.038v.033l-.006.038-.007.039-.012.038c-.114.405-.366.579-.53.919 0 0-.125-.617-.1-1.093.031-.483.2-.663.409-.837zm.725.013v.007l.006.006v.007l.006.007v.006l.006.007.007.006v.012l.006.013.013.02.012.025.013.033.018.032.013.032.02.038.018.033.019.038.013.045.018.039.02.038.024.045.038.09.032.084.019.045.019.038.018.039.013.045.013.039.012.032.013.039.012.032.006.032.013.026c.063.29 0 .476-.126.649-.126.174-.34.366-.542.726 0 0-.226-.308-.258-.469-.025-.167.02-.552.07-.713.05-.161.246-.69.416-1.223zm.188 2.359l-.006.006h-.007v.006l-.006.007-.007.007-.006.013-.019.012-.012.02-.019.019-.02.026-.018.02-.018.025-.02.026-.025.032-.025.026-.019.031-.025.026-.05.064-.044.058-.025.032-.02.033-.025.032-.018.026-.019.032-.019.025-.019.026-.019.026-.018.026-.013.025-.013.02-.006.018-.006.013-.007.007v.007l-.006.006c-.056.161-.157.45-.025.656.145.205.447.533.718.675 0 0-.29-.47-.264-.855.018-.25.207-.469.245-.617.03-.15.005-.406-.095-.637zm-.857-.297l.006.008.007.012.006.007.007.013.012.013.006.013.007.013.006.012.006.02.013.013.006.02.007.012.006.02.006.013.019.038.012.039.013.038.013.039.012.038.013.039v.026l.006.02.006.018v.045l.006.02c.013.218-.018.398-.138.726a9.29 9.29 0 01-.485 1.066s-.208-.301-.322-.565c0 0 .322-.45.454-.764.164-.375.227-.722.29-1.011zm-.145-.179v.006l-.006.007v.039l-.007.026-.006.025-.006.039-.007.038-.012.046-.006.044-.013.052-.012.058-.02.058-.012.058-.019.064-.019.07-.025.064-.019.07-.025.078-.031.07-.025.078-.032.077-.031.077-.038.077-.038.077-.044.077-.038.077-.05.084-.045.077-.05.07-.05.077-.057.077c-.41.527-.743.714-.964.714-.334 0-.667-.29-.78-.611-.114-.321-.076-.829.138-1.002 0 0 .202.63.623.655.485.026 1.102-.526 1.726-1.593z" fill="#0055A5"/><path d="M63.803 15.974l.006.02v.019l.006.02v.018l.013.039.006.045v.045l.006.045.006.045v.148l-.006.052-.006.05v.052l-.013.052-.006.051-.012.052c-.05.205-.177.475-.41.63-.208.128-.687.16-.875-.31 0 0 .881.07 1.285-1.073zm1.443 4.241l.012.026.013.032.019.032.012.032.02.033.018.032.025.032.019.033.044.064.044.064.05.065.044.064.044.064.026.026.018.032.019.032.02.032.018.026.019.032.013.026.012.032.013.026.012.026.007.025.006.026v.026l.006.02c-.012.655-.296 1.053-.358 1.271 0 0-.51-.417-.599-.892-.05-.247 0-.98.404-1.339zm-.574.462l.006-.018.006-.02.007-.019.013-.02.006-.025.013-.02.006-.025.012-.026.013-.025.012-.032.013-.026.013-.026.025-.058.032-.057.03-.065.032-.058.02-.025.012-.026.018-.026.02-.025.018-.026.019-.026.019-.026.019-.02.019-.019.019-.019.019-.02.018-.019s.284-.835-.61-1.35c0 0-.372.496-.466.971-.101.47.39.752.617 1.176zm-1.121-2.12l-.032.039-.03.032-.026.039-.031.038-.032.032-.031.039-.038.038-.032.033-.03.032-.032.038-.02.013-.018.013-.012.02-.02.013-.012.012-.019.013-.013.013-.018.007-.013.013-.019.013-.013.006-.018.006s-.057.373-.02.623c.045.367.278.746.379 1.029 0 0 .39-.527.434-.836.044-.308.038-.559.05-.707 0 0-.214-.36-.334-.61zm-1.039 1.799l-.012-.019-.013-.02-.012-.025-.013-.02-.02-.032-.012-.026-.018-.032-.02-.032-.018-.038-.02-.033-.018-.038-.019-.046-.019-.038-.018-.045-.026-.039-.019-.045-.038-.09-.037-.096-.032-.096-.013-.045-.018-.045-.013-.052-.013-.045-.006-.045-.013-.051-.006-.045-.007-.045v-.045l-.006-.046s.447.245.819.065c0 0 .044.604-.025.803-.057.168-.132.265-.315.406zm.101.129l.013-.007.006-.006.007-.013.012-.006.007-.007.012-.007.007-.013.012-.006.013-.013.006-.007.025-.026.02-.02.025-.025.025-.02.018-.025.026-.02.012-.012.006-.007.013-.012.012-.013.007-.007.006-.013.013-.007.006-.013.006-.006.007-.013s.295.553.346.713c0 0-.145.033-.309-.083a2.07 2.07 0 01-.359-.306zm1.366-.328l-.006.006v.007l-.007.013v.007l-.006.013-.006.006-.006.013-.007.013-.012.026-.013.025-.02.032-.018.026-.019.032-.019.039-.025.032-.019.039-.025.032-.025.039-.05.07-.051.078-.025.032-.026.039-.018.032-.025.032-.026.032-.019.033-.018.025-.026.026-.012.026-.019.019-.006.007-.006.012-.007.007-.006.007-.006.007-.006.006-.007.007-.006.006s.038.244.214.591c.176.354.422.598.554.72 0 0 .29-.52.378-.745.101-.264.088-.527.044-.624-.1-.228-.44-.556-.592-.845zm.713 1.761l.006.026.013.019.012.025.013.02.018.026.013.025.02.02.012.026.018.025.02.033.037.051.032.058.038.051.038.058.037.057.032.058.013.032.019.026.012.032.013.025.012.026.013.032.006.026.007.032.012.026v.026c.038.218.007.398-.05.552-.063.148-.252.443-.378.668 0 0-.435-.417-.53-.713a1.087 1.087 0 01.064-.745c.1-.2.327-.411.428-.623zm-1.23-.058l.012.026.013.025.013.02.012.025.013.026.012.02.032.044.031.051.032.046.038.045.03.045.032.044.032.046.03.044.014.02.012.025.013.02.012.025.013.02.013.018.006.026.013.02.006.019.006.026c.07.25.094.417-.025.72-.113.262-.24.417-.284.578 0 0-.352-.463-.415-.656-.057-.2-.076-.514-.006-.713.076-.205.202-.47.29-.655zm1.733 1.773v.007h-.006v.006l-.006.006-.007.007-.006.006-.006.006-.007.013-.006.007-.012.013-.007.013-.013.012-.018.026-.02.033-.025.032-.025.032-.025.038-.025.039-.032.038-.025.046-.031.044-.025.045-.032.045-.025.045-.025.052-.025.044-.025.045-.026.052-.018.045-.02.044-.018.052-.013.045-.019.045-.006.038-.006.045-.007.019v.058c.02.495.34.816.385 1.125 0 0 .32-.366.44-.61.132-.283.24-.515.202-.83-.038-.314-.12-.513-.435-.828zm-1.116-.077l.006.013.013.02.012.02.013.018.012.02.013.025.013.026.012.025.02.026.012.026.013.032.018.025.013.032.012.033.026.064.012.038.013.033.012.032.013.032.006.039.013.031.006.033.006.032.007.038.006.033v.121l-.006.032-.007.026c-.075.29-.378.694-.478.874 0 0-.24-.501-.29-.733-.05-.23-.006-.603.479-1.066zm6.059-12.324v-.007l-.006-.006v-.007l-.006-.006-.007-.006-.006-.007H70.1l-.012-.007-.013-.006-.012-.007h-.013l-.019-.007-.013-.007-.018-.006h-.019l-.025-.007h-.02l-.025-.006-.018-.007h-.025l-.025-.006h-.052l-.031-.007h-.057l-.025-.007h-.157c-.34 0-.618.052-.618.116s.277.109.618.109c.34.003.616-.042.616-.106zm-4.207-1.934l.006-.026.007-.032.006-.032.006-.033.013-.032.012-.032.013-.039.013-.038.012-.039.013-.038.031-.077.031-.084.032-.083.031-.077.032-.084.013-.039.018-.038.013-.039.006-.039.013-.032.013-.038.006-.033.006-.032.006-.033.006-.031v-.052a.37.37 0 00-.365-.373.37.37 0 00-.365.373c0 .263.32.867.358 1.15h.014v.002zm1.022.604l.031-.077.032-.07.025-.065.032-.07.025-.064.025-.07.025-.065.026-.058.025-.064.019-.059.025-.058.019-.057.025-.058.019-.052.019-.051.019-.052.012-.05.02-.046.012-.045.013-.045.012-.039.013-.038.013-.039.006-.038.012-.033.007-.032.006-.032v-.026l.006-.025v-.065c0-.115-.138-.2-.258-.238-.139-.038-.246-.051-.334.013-.164.135-.315 1.176-.378 1.613.164.033.264.058.447.155zm-.581-.167l-.019-.007h-.044l-.031-.007h-.095l-.03-.007h-.026c.05-.417.189-1.105.271-1.38.088-.277.189-.47.365-.521 0 0-.132.379-.207.77-.076.394-.133.779-.184 1.152zm.296.919h.006v.006h.007v.006h.006l.006.013.013.013.012.007.013.013.019.019.012.012.02.02.018.019.025.012.02.02.025.019.025.02.025.025.025.02.032.019.025.019.031.02.025.019.032.019.031.02.032.019.031.013.032.02.03.012.039.013.032.013.03.013.032.006s-.144-.386-.711-.47z" fill="#0055A5"/><path d="M66.379 10.474h.038l.025-.007h.075l.026.007h.062l.032.006h.031l.032.007.031.007h.038l.031.007.038.006.032.013.037.006.038.007.032.013.038.013.038.006.031.013.038.013.038.013.031.019.031.013.038.02.032.018.031.013.025.026.032.019c.309.218.41.404.516.604 0 0-.554.044-1.039-.244-.233-.143-.434-.464-.478-.618zm.591.879s.063.234.346.37c0 0-.154.01-.3.144 0 0 .095.186.347.289 0 0-.463.482-.96.45 0 0 .23.302.74.192.51-.115.661-.405.755-.514 0 0-.063.276-.031.386 0 0 .217-.016.393-.241 0 0-.132.224-.158.417 0 0 .142.003.394-.144 0 0-.056.138-.063.305 0 0 .592-.196.882-.466v.209l-.016.016v.064s.907-.084.976-1.446c0 0-.595.224-1.212.192-.604-.03-1.734-.049-2.093-.222zm1.716.514c.479.064 1.055.032 1.055.032v.032h-.016v.033l-.015.032v.032l-.016.016v.032l-.016.016v.032h-.015v.016l-.016.016v.016l-.015.016-.016.015v.017H69.6l-.015.015v.016h-.017l-.016.016v.016h-.016l-.015.016-.016.016c-.031-.398-.819-.401-.819-.401v-.047zm1.744-.391l-.007.058-.006.052-.007.058-.006.051-.012.058-.007.051-.013.051-.012.052-.013.051-.012.052-.019.044-.013.046-.018.045-.013.045-.019.039-.019.038s.36-.27.447-.507c.088-.239.108-.393-.252-.284zm.76.262l-.031.016h-.032l-.031.016h-.032c-.132.411-.582.547-.803.643-.233.115-.456.385-.456.385.365.084.535.177.535.177a1.027 1.027 0 011.276.016c.377-.225.456-.752.267-1.028l-.031-.032-.016-.032-.015-.016-.032-.016-.016-.016-.03-.016-.016-.016-.032-.016-.031-.016-.016-.016h-.03l-.032-.016h-.032l-.016-.016h-.348zm-.047.546h.047v.016h.031v.016h.016l.015.016v.016h.016v.016h.016v.064l.015.016c0 .083-.075.16-.158.16-.081 0-.141-.077-.141-.16.001-.083.061-.16.143-.16zm-1.408.606h-.006v.006h-.006v.007l-.007.006-.006.013-.012.007-.006.013-.013.02-.013.012-.006.013-.019.019-.013.02-.012.012-.02.02-.012.019-.019.026-.012.019-.038.038-.038.039-.03.045-.02.02-.019.019-.019.019-.018.02-.02.012-.018.02-.019.012-.02.02s.94-.014 1.179.822c0 0 .322-.514.088-.842-.252-.354-.492-.405-.826-.476z" fill="#0055A5"/><path d="M68.704 13.089h-.006v.006h-.019v.007h-.026l-.006.007-.012.006h-.02l-.012.006-.013.007h-.019l-.012.007-.019.007-.032.006-.037.013-.032.006-.018.006-.013.007-.02.007h-.012l-.018.007-.013.006h-.013l-.012.007h-.013l-.006.006s-.006-.18.006-.263c-.094.02-.208.052-.309.065 0 0-.295.68-.535.957 0 0-.012.16.12.385 0 0 .17-.398.478-.732.17-.183.284-.28.643-.536zm.8-.142h-.013l-.012.007h-.013l-.019.007-.019.006-.018.006-.02.007-.025.006-.025.013-.025.006-.025.007-.026.013-.031.007-.025.012-.032.013-.031.013-.063.026-.063.025-.057.026-.063.026-.031.02-.025.012-.032.013-.025.02-.025.012-.025.013-.026.019-.019.013c-.296.218-.498.462-.472.893 0 0 .24-.34.504-.495.207-.116.585-.45.78-.746zm-.007-3.123h-.019l-.006.007h-.032l-.013.007h-.017l-.013.007h-.012l-.007.006h-.012l-.013.007-.012.007-.007.006-.012.006-.006.007-.013.007-.007.006-.012.007-.006.007-.007.007-.006.012-.006.007-.006.013-.007.006v.013l-.006.007v.02l-.007.006v.02c0 .148.227.502.29.656.063-.154.283-.508.283-.656 0-.148-.17-.192-.264-.192h-.044v-.006zm.194 1.151l.007-.026v-.019l.006-.026.006-.025v-.026l.006-.026.007-.032.006-.026.006-.032.006-.032.013-.064.012-.065.013-.07.02-.065.005-.032.013-.032.006-.026.007-.032.012-.026.007-.025.012-.026.013-.026.006-.026.013-.019.013-.02.006-.019.012-.012.013-.013a.534.534 0 01.384-.116.17.17 0 01.145.218c-.038.122-.428.72-.479.79-.088-.011-.075-.011-.296-.024zm-.346 0v-.026l-.006-.019-.007-.026-.006-.025v-.026l-.006-.026-.006-.032-.007-.026-.006-.032-.007-.032-.012-.064-.013-.065-.018-.07-.013-.065-.013-.032-.006-.032-.006-.026-.013-.032-.006-.026-.012-.025-.007-.026-.013-.026-.012-.026-.006-.019-.013-.02-.012-.019-.007-.012-.013-.013a.53.53 0 00-.383-.116.167.167 0 00-.14.218c.032.122.423.72.48.79.087-.011.069-.011.289-.024zm-.245-1.87h.295v-.34h.252v.34h.303v.219h-.303v.398h-.252v-.398H69.1v-.219zM65.453 7.08h.309v-.34h.24v.34h.308v.22H66v.398h-.239v-.399h-.309v-.218zm7.319 4.23v-.046l-.006-.025v-.077l-.006-.007v-.039a1.457 1.457 0 01-.013-.43c.22.084.372.141.668.636 0 0-.479-.302-.643-.013z" fill="#0055A5"/><path d="M72.357 12.1l-.006-.014v-.045l-.006-.02v-.019l-.007-.019v-.025l-.006-.02v-.025l-.006-.02-.006-.025-.007-.026-.006-.026-.007-.032-.006-.026-.012-.051-.013-.058-.012-.058-.02-.058-.012-.058-.019-.058-.018-.057-.007-.026-.013-.026c-.119-.334-.05-.822.095-1.111.144-.29.226-.56.195-.855 0 0 .29.096.447.2.025.346-.17.687-.258.88-.113.231-.095.527-.063.713.037.315-.026.65-.227.964zm-.033-2.629V9.34l-.006-.006V9.3l-.007-.007v-.012s-.453-.443-.825-.521a.486.486 0 00-.447.116s.126-.013.328.154c.201.16.447.366.636.418.188.048.226.035.32.022zm-1.328-.552l-.032.032-.031.032-.026.032-.03.033-.026.032-.025.033-.013.012-.012.02-.013.012-.007.02-.012.019-.013.013-.006.02-.006.012-.013.013-.006.02-.006.012-.007.02-.006.012v.02l-.007.012-.006.02v.058c0 .16.19.571.284.725.094.155.245.36.226.604-.012.129-.094.258-.195.36 0 0 .548-.134.61-.475.064-.309-.069-.527-.157-.7-.082-.161-.334-.534-.397-.688-.056-.143-.087-.258-.068-.335zM67.803 12.8l-.025.07-.025.077-.02.07-.03.072-.026.07-.025.071-.03.071-.033.064-.03.065-.033.07-.03.064-.039.058-.03.065-.033.058-.038.057-.03.052c-.171.263-.278.7-.253.848 0 0-.252-.56-.126-.951.1-.309.365-.758.856-.951zm-.617.128h-.045l-.013.007h-.069l-.019.007h-.044l-.018.006h-.025l-.02.007h-.025l-.018.007-.025.006-.026.007-.018.006h-.025l-.026.013-.019.007-.019.006-.025.007-.018.013-.02.006-.018.013-.02.007c-.22.154-.44.482-.516.88 0 0 .378-.064.567-.257.182-.189.415-.478.504-.748zm1.944.694h.044l.007.006h.018l.013.007h.025l.013.007h.012l.013.006.025.007h.025l.026.006.025.007.025.007.013.006h.012l.013.007h.012l.007.007h.019l.012.006s-.32.096-.485.226c-.132.115-.252.295-.302.59-.082.418-.321.868-.397 1.003l-.025-.006c.044-.29-.132-.88-.177-.964 0 0 .253-.167.372-.334.083-.125.234-.33.655-.594zm-1.661.893l-.013.02-.006.02-.012.025-.013.026-.013.02-.012.025-.013.032-.012.026-.013.026-.012.032-.026.058-.025.058-.013.032-.012.033-.013.038-.006.032-.012.033-.007.032-.006.038-.007.033-.005.038-.007.039v.179l.007.038.012.039.006.038c.12.405.378.579.542.919 0 0 .126-.617.094-1.093-.025-.483-.195-.663-.403-.837zm-1.537 1.125v-.02l.006-.025.013-.026.006-.032.018-.026.013-.032.02-.033.018-.032.019-.039.019-.032.025-.038.025-.039.025-.038.019-.039.05-.077.05-.077.026-.039.025-.045.019-.039.025-.038.019-.039.019-.038.018-.039.013-.032.012-.038.013-.033.007-.038.006-.032v-.058c-.032-.308-.429-.527-.53-.572h-.006c-.1.045-.503.264-.529.572-.025.308.51.88.523 1.111h.014v.002zm.812-1.112l-.007.007v.013l-.006.007-.007.006v.007l-.006.006-.006.012-.006.013-.006.02-.013.025-.019.033-.013.032-.018.032-.013.038-.019.033-.019.038-.019.045-.018.039-.02.038-.018.045-.038.09-.038.084-.019.045-.012.038-.019.039-.012.045-.02.039-.012.032-.013.039-.006.032-.012.032-.007.026c-.063.29-.006.476.12.649.132.174.346.366.542.726 0 0 .233-.308.258-.469a2.109 2.109 0 00-.07-.713c-.044-.163-.24-.69-.41-1.223zm-.812 2.86l.03-.033.033-.032.03-.032.026-.032.032-.033.025-.032.031-.033.025-.038.019-.032.025-.032.007-.02.012-.012.013-.02.006-.013.006-.019.013-.013.006-.012.006-.02.006-.013.006-.013.007-.012.006-.013c.044-.136.057-.328-.056-.476-.132-.174-.303-.372-.315-.533h-.013c-.006.161-.176.36-.315.533-.113.148-.1.34-.05.476.05.128.201.353.371.507h.008v.002zm.624-.501l.006.006.006.006.007.007.006.007.006.013.013.012.012.02.02.019.018.026.019.02.019.025.025.026.019.032.025.026.025.031.019.026.05.064.045.058.025.032.025.033.02.032.018.026.025.032.02.025.018.026.012.026.019.026.013.025.012.02.013.018.006.013v.007l.006.007v.006c.063.161.158.45.026.656-.132.205-.447.533-.718.675 0 0 .296-.47.264-.855-.02-.25-.201-.469-.24-.617-.036-.15-.011-.406.096-.637zm.85-.297l-.006.008-.006.012-.006.007-.007.013-.006.013-.012.013-.007.013-.006.012-.006.02-.007.013-.012.02-.006.012-.007.02-.006.013-.019.038-.013.039-.012.038-.013.039-.012.038-.013.039-.006.026v.02l-.007.018v.02l-.006.025v.02c-.012.218.026.398.145.726a8.3 8.3 0 00.485 1.066s.202-.301.315-.565c0 0-.321-.45-.46-.764-.158-.375-.22-.722-.284-1.011zm.151-.179v.013l.006.02v.019l.006.026.006.025.007.039.006.038.006.046.013.044.013.052.012.058.013.058.019.058.018.064.02.07.018.064.025.07.025.078.026.07.03.078.033.077.03.077.038.077.038.077.038.077.044.077.044.084.05.077.051.07.05.077.057.077c.41.527.743.714.964.714.333 0 .667-.29.78-.611.108-.321.076-.829-.138-1.002 0 0-.201.63-.63.655-.477.026-1.101-.526-1.718-1.593z" fill="#0055A5"/><path d="M68.054 15.974l-.006.02-.007.019v.02l-.006.018-.006.02v.02l-.007.044-.006.045-.006.045v.245l.006.052.006.05.007.052.013.052.012.051c.05.206.17.476.41.63.2.128.686.16.868-.309 0-.001-.881.07-1.278-1.074zm-2.127 3.123l.025-.013.018-.013.026-.007.018-.012.026-.013.019-.013.012-.007.013-.013.012-.006.007-.007.013-.013.012-.006.013-.013.012-.007.013-.013.013-.013.006-.013.012-.012.013-.013.012-.02.013-.012.013-.02.012-.013.013-.019.012-.02.019-.025c.107-.173.214-.494.157-.726-.075-.282-.233-.398-.32-.578-.07.07-.114.122-.209.18h-.006c-.088-.058-.139-.109-.214-.18-.094.18-.24.296-.315.578-.056.232.044.553.158.726.138.233.246.272.372.336zm-.001 1.767l.006-.026.013-.026.012-.032.013-.033.018-.032.02-.032.018-.032.025-.033.025-.038.026-.039.025-.032.025-.039.05-.077.057-.077.05-.077.026-.038.025-.039.025-.039.019-.032.019-.039.018-.038.019-.032.013-.038.012-.033.013-.032.006-.032v-.084c-.081-.443-.359-.354-.573-.534h-.006c-.214.18-.498.09-.573.534-.056.285.51.825.574 1.1zm.681-.649l-.006.026-.019.032-.012.032-.02.032-.018.033-.019.032-.019.032-.019.033-.044.064-.05.064-.044.065-.05.064-.044.064-.02.026-.024.032-.019.032-.02.032-.018.026-.012.032-.02.026-.012.032-.012.026-.007.026-.006.025-.006.026-.006.026v.02c.012.655.29 1.053.352 1.271 0 0 .517-.417.605-.892.048-.247-.008-.98-.411-1.339zm.579.462l-.007-.018-.006-.02-.006-.019-.013-.02-.006-.025-.012-.02-.007-.025-.013-.026-.012-.025-.013-.032-.012-.026-.013-.026-.025-.058-.031-.057-.032-.065-.031-.058-.019-.025-.02-.026-.018-.026-.018-.025-.02-.026-.018-.026-.02-.026-.018-.02-.02-.019-.018-.019-.018-.02-.026-.019s-.277-.835.618-1.35c0 0 .371.496.472.971.1.47-.391.752-.618 1.176zm1.121-2.12l.026.039.03.032.033.039.03.038.032.032.032.039.031.038.032.033.038.032.03.038.013.013.02.013.018.02.013.013.019.012.012.013.02.013.012.007.018.013.013.013.019.006.012.006s.057.373.025.623c-.043.367-.283.746-.377 1.029 0 0-.397-.527-.435-.836-.05-.308-.044-.559-.056-.707 0 0 .22-.36.34-.61zm1.031 1.799l.013-.019.013-.02.012-.025.019-.02.013-.032.018-.026.02-.032.012-.032.019-.038.019-.033.018-.038.026-.046.018-.038.02-.045.018-.039.02-.045.037-.09.038-.096.031-.096.019-.045.012-.045.013-.052.012-.045.013-.045.007-.051.006-.045.006-.045v-.091s-.44.245-.806.065c0 0-.05.604.02.803.056.168.138.265.314.406zm-.098.129l-.007-.007-.006-.006-.013-.013-.006-.006-.013-.007-.006-.007-.013-.013-.006-.006-.012-.013-.013-.007-.007-.013-.012-.013-.025-.02-.025-.025-.02-.02-.024-.025-.019-.02-.013-.012-.012-.007-.007-.012-.012-.013-.013-.007-.006-.013-.007-.007-.012-.013-.006-.006-.007-.013s-.29.553-.34.713c0 0 .145.033.302-.083.164-.113.202-.146.36-.306zm-1.362-.328l.007.006v.007l.006.013v.007l.006.013.006.006v.013l.007.013.012.026.019.025.013.032.019.026.018.032.026.039.018.032.025.039.026.032.019.039.05.07.05.078.026.032.025.039.025.032.019.032.025.032.02.033.024.025.019.026.02.026.012.019.006.007.012.012.007.007.006.007.006.007v.006l.007.007.006.006s-.038.244-.208.591a2.657 2.657 0 01-.554.72s-.29-.52-.378-.745c-.101-.264-.095-.527-.045-.624.095-.228.435-.556.593-.845zm-1.946 3.99l.006-.02.007-.018.007-.02.005-.019.013-.012.006-.02.013-.02L66 24l.013-.019.013-.02.019-.025.012-.02.031-.038.032-.045.032-.045.037-.045.032-.051.03-.051.02-.026.012-.026.02-.026.012-.025.012-.026.013-.032.013-.026.012-.031c.063-.187.063-.412-.012-.566-.082-.174-.39-.61-.429-.732-.037.122-.34.559-.428.732-.076.154-.076.379-.007.566.114.32.385.54.429.725h.013zm1.229-2.229l-.006.026-.013.019-.013.025-.012.02-.013.026-.019.025-.012.02-.02.026-.018.025-.019.033-.031.051-.038.058-.038.051-.038.058-.031.057-.032.058-.019.032-.012.026-.013.032-.019.025-.006.026-.012.032-.013.026-.006.032-.006.026-.007.026c-.038.218 0 .398.05.552.063.148.252.443.378.668 0 0 .435-.417.53-.713a1.09 1.09 0 00-.057-.745c-.107-.2-.334-.411-.435-.623zm1.233-.058l-.012.026-.013.025-.013.02-.012.025-.013.026-.012.02-.032.044-.031.051-.038.046-.031.045-.038.045-.031.044-.032.046-.031.044-.013.02-.013.025-.012.02-.013.025-.012.02-.013.018-.006.026-.007.02-.012.019-.006.026c-.07.25-.088.417.031.72.107.262.24.417.284.578 0 0 .352-.463.409-.656.063-.2.082-.514.006-.713a6.696 6.696 0 00-.284-.655zm-2.469 5.853l.006-.025.006-.026.007-.026.012-.032.013-.031.012-.033.013-.038.019-.045.019-.039.018-.045.02-.045.018-.051.025-.052.019-.05.025-.052.02-.058.024-.051.026-.058.018-.064.02-.058.025-.064.019-.064.019-.064.019-.065.018-.064.013-.064.013-.071.012-.064.013-.071.006-.07.006-.065v-.07c.019-.373-.315-.964-.498-1.183h-.012c-.183.219-.504.81-.498 1.183.026.737.486 1.444.505 1.675zm.737-4.08v.007h.006v.006l.007.006.006.007.007.006.005.006.007.013.006.007.013.013.006.013.006.012.026.026.018.033.025.032.026.032.025.038.025.039.031.038.025.046.026.044.031.045.025.045.032.045.025.052.025.044.025.045.019.052.025.045.02.044.018.052.013.045.012.045.013.038.006.045v.077c-.013.495-.334.816-.384 1.125 0 0-.315-.366-.434-.61-.14-.283-.246-.515-.202-.83.032-.314.114-.513.435-.828zm1.115-.077l-.013.013-.006.02-.013.02-.012.018-.013.02-.012.025-.013.026-.019.025-.012.026-.013.026-.012.032-.02.025-.012.032-.012.033-.032.064-.013.038-.012.033-.013.032-.006.032-.013.039-.005.031-.013.033-.007.032-.006.038v.033l-.006.032v.056l.006.032v.032l.013.026c.069.29.371.694.472.874 0 0 .24-.501.296-.733.05-.23.006-.603-.479-1.066z" fill="#0055A5"/><path d="M66.342 28.909l.007-.052.006-.051.006-.052.007-.051.012-.052.007-.045.012-.044.013-.046.019-.045.013-.045.012-.038.019-.045.019-.038.013-.039.037-.077.032-.071.037-.07.032-.065.031-.064.013-.032.013-.033.012-.032.013-.031.012-.026.006-.032.006-.026.007-.026c.063-.334.044-.649-.214-1.034a9.929 9.929 0 01-.599 1.593c-.006.013-.012.02-.018.032 0-.013-.007-.02-.013-.032a9.319 9.319 0 01-.605-1.593c-.252.385-.277.7-.214 1.035.057.295.378.648.416 1.227.038.585-.605.803-.605.803.22.077.466.116.857-.263a.792.792 0 00.164-.225c.043.083.1.154.163.225.397.379.643.34.857.263 0 0-.636-.218-.605-.803zm-2.023-3.862l.006.019.013.026.006.02.006.025.013.026.013.025.006.026.012.026.019.051.025.052.025.058.02.051.025.058.012.026.006.026.013.019.012.025.006.026.007.02.013.025.006.02.006.019.006.013.007.019.006.012v.02l.006.006c.05.231-.019.514-.428.81 0 0-.265-.193-.371-.443-.101-.232-.038-.399.063-.514.1-.13.346-.406.44-.592zm.869.861v.045l-.006.026v.045l-.006.032v.026l-.007.032-.005.032-.007.039-.006.038-.007.039-.006.038-.006.039-.006.038-.02.084-.018.083-.025.09-.013.038-.007.039-.018.045-.013.038-.012.039-.013.038-.018.039-.013.032-.02.032-.012.032c-.258.457-.636.803-.97.803-.302 0-.365-.186-.522-.263 0 0 .075-.398.421-.5.422-.136 1.07-.65 1.335-1.138z" fill="#0055A5"/><path d="M64.087 26.743l-.013-.013-.013-.006-.025-.02-.012-.012-.013-.007-.02-.013-.012-.006-.012-.013-.013-.012-.006-.007-.007-.006-.006-.007-.006-.006-.013-.006-.006-.007-.006-.007-.007-.006-.006-.013-.013-.006-.006-.007-.006-.012s-.322.121-.599.308c-.264.187-.529.501-.667.662 0 0 .396.103.655-.013 0 0 .094-.392.378-.565.07-.04.265-.104.453-.2zm-.34-.333l-.007-.007-.006-.013-.006-.006-.006-.013-.007-.013-.006-.013-.006-.013-.006-.013-.007-.013-.012-.012-.006-.02-.007-.013-.006-.013-.007-.019-.006-.019-.006-.013-.013-.019-.006-.02v-.019l-.006-.019-.007-.019-.005-.02-.007-.025v-.019l-.006-.019v-.051l-.007-.02v-.051l.007-.026v-.026s-.567.367-.737.501a5.13 5.13 0 00-.605.637s.428-.097.762-.206c.36-.123.605-.29.737-.367zm-.957.622l-.026.013-.032.006-.038.013-.03.013-.039.007-.037.012-.044.007-.038.012-.044.013-.044.007-.088.02-.088.025-.095.02-.088.018-.094.02-.088.019-.038.006-.044.013-.038.006-.044.013-.037.007-.032.006-.038.013-.031.006-.031.007-.026.013c-.29.09-.497.231-.768.54 0 0 .416.115.642.192 0 0 .36-.25.75-.398.257-.102.376-.379.647-.649zm-.637 2.063l.012-.013.013-.013.013-.019.012-.012.007-.007.006-.013.006-.007.006-.006v-.013l.006-.007.007-.013.006-.006v-.013l.007-.006v-.026l.006-.006v-.077l-.006-.013v-.013l-.007-.02v-.012l-.006-.02c-.044-.121-.296-.263-.447-.334-.246-.121-.926-.308-1.146-.378 0 0-.114.134-.17.276-.032.058.006.109.1.122.196.038.65-.052.762.026.12.077.076.186.076.289 0 0 .208-.128.34-.096.183.038.296.128.397.43zm-.604-.964h.012l.007.007h.006l.013.006h.012l.013.006.012.007h.013l.013.007.018.006.013.006.019.007.019.006.019.006.018.013.02.007.018.006.025.013.02.007.024.013.019.012.025.007.025.013.02.013.025.013.025.012.025.013.019.013.025.02.025.012.025.013s.114-.045.17-.154c.057-.103.29-.457.504-.502 0 0-.183-.012-.29-.05 0 0-.214.057-.377.128-.157.057-.352.16-.58.314zm1.756-.443H63.3l-.013.006-.006.007h-.014l-.006.006h-.013l-.006.006h-.013l-.006.006h-.019l-.006.007h-.019l-.006.007h-.032l-.012.006h-.038l-.013.006h-.045s-.597.424-.667.842c-.063.366.126.54.214.585.095.052.51.219.781-.347 0 0-.46.154-.592-.07-.12-.232.082-.566.208-.656.17-.128.466-.218.649-.18 0 0-.15-.141-.32-.231z" fill="#0055A5"/><path d="M59.38 32.54l.026-.116.031-.116.032-.122.013-.057.018-.058.019-.058.02-.064.018-.058.019-.057.025-.058.019-.058.025-.058.025-.058c.27-.585.939-2.146 2.324-2.416.126-.032-.151-.36-.277-.34-.126.012-.371.18-.479.25 0 0 0-.334-.006-.392 0-.057-.05-.083-.107-.083-.05.006-.39 0-.491.129-.322.372-.851 1.375-1.153 2.12-.303.746-.51.977-.832.861-.315-.115-.504-.488-1.064-.373-.189.04-.403.174-.573.367.05.09.106.206.365.206.258 0 .762.109 1.033.302.279.197.568.268.97.306zm5.532-4.833l.007.045.006.045.012.045.013.045.013.044.019.046.012.038.019.045.018.046.02.044.018.046.025.038.02.045.025.045.019.045.025.044s-.416 1.986-1.946 2.134c0 0 .03-.412.478-.72.454-.315 1.134-.803 1.084-1.542 0 0-.126.026-.34.302-.215.277-.693 1.08-1.424 1.086 0 0 .107-.379.434-.591.322-.219.738-.495.927-.829.189-.327.384-.482.516-.546zm-.724 7.236l.932 1.33.705-1.28-.252-.462c-.183.34-.384.7-.491.907-.082-.129-.315-.463-.623-.907l-.272.412z" fill="#0055A5"/><path d="M63.953 33.818l-.17-.244-.176-.25-.176-.252-.177-.25-.176-.25-.17-.245-.082-.116-.082-.115-.082-.116-.075-.109-.076-.11-.07-.102-.068-.103-.07-.096-.063-.09-.063-.084-.056-.083-.05-.071-.051-.07-.045-.065-.037-.058-.032-.051-.031-.039-.025-.038-.02-.026-.012-.02.353-.256-1.108-.431.018 1.228.378-.277 2.23 3.2.264-.411zm-7.633-7.255l.026-.025.031-.026.026-.019.031-.02.032-.012.03-.013.032-.006.032-.007.032-.006h.037l.032.006h.038l.038.013.037.006.038.013.038.013.038.02.044.018.038.02.044.02.038.025.044.026.044.031.038.026.044.032.044.032.044.038.044.032.044.039.038.039.044.038.044.039c.466.437.761.886.49 1.195-.251.276-.742.038-1.202-.399-.472-.436-.762-.886-.491-1.188z" fill="#0055A5"/><path d="M57.075 31.961l-.006-.006-.006-.007-.006-.006h-.007v-.006h-.006v-.007h-.006v-.007h-.006a1.264 1.264 0 01-.391-.938c0-.72.573-1.304 1.272-1.304.706 0 1.28.585 1.28 1.304 0 .097-.02.251-.02.251.056-.109.271-.604.309-.694a1.631 1.631 0 00-1.569-1.215c-.642 0-1.19.38-1.46.932.1-.655.42-1.246.648-1.465.27-.263.736-.347.736-.347-.308.046-.699-.14-1.153-.558-.421-.399-.636-.746-.655-1.035.025.412.019.636-.094.977-.158.45-.58 1.285-.428 2.23.081.52.447 1.292 1.07 1.921.127.141.177.354.196.463 0 0 .907 0 1.128.019 0 0 .214-.02.201-.161 0-.135-.12-.167-.22-.167-.114 0-.567.006-.807-.174zm5.027.315l-.107.038-.114.039-.106.032-.107.032-.114.032-.107.032-.107.026-.107.026-.113.025-.107.02-.107.019-.106.019-.208.038-.215.033a5.268 5.268 0 01-1.045.064.324.324 0 01-.025.186s.063.077.063.174c.346.007.705-.007 1.064-.07.605-.097 1.24-.219 1.877-.463l-.21-.303zm.958-.046l.145-.083.145-.09.144-.096.145-.103.138-.109.145-.115.138-.122.145-.129.139-.134.132-.148.138-.148.132-.16.139-.174.132-.174.126-.187.069-.096.063-.102.12-.206c-.184.083-.423.026-.423.026-.012.019-.043.07-.063.09-.63.957-1.335 1.567-2.06 1.966l.211.295zm-5.115.335h-.063l-.02-.006h-.206l-.044.006h-.05l-.044.007h-.05l-.045.006h-.043l-.026.006h-.019l-.019.007h-.018c-.227.032-.48.083-.511.205-.019.122.056.25.17.43.076.11.24.052.328.013.095-.038.624-.32.705-.417.082-.09.114-.225-.044-.257zm.535.36l-.006-.006-.007-.007h-.006l-.006-.006h-.006l-.007-.006-.006-.007h-.013l-.006-.007h-.013l-.006-.006h-.013l-.006-.006h-.025l-.006-.007h-.026l-.012-.006h-.088l-.013.006h-.012l-.013.007h-.013l-.012.006h-.013c-.144.058-.66.373-.699.514-.031.148.038.225.12.257a.985.985 0 00.252.07.42.42 0 00.321-.154c.063-.083.303-.378.34-.45.032-.057.057-.16 0-.192zm.065.321l-.006.007-.006.013-.013.006-.006.013-.013.013-.012.013-.006.013-.013.013-.012.012-.013.02-.013.012-.012.013-.019.032-.025.032-.013.013-.012.02-.013.013-.012.013-.007.012-.013.013-.012.013-.007.013-.012.013-.007.013-.006.006-.006.013-.007.007v.007h-.006v.006l-.007.006c-.025.038.013.109.076.096.07-.006.422-.045.63-.186.201-.141.34-.41.201-.514-.145-.104-.359-.053-.598.211zm.112-.79h-.012l-.013-.007h-.019l-.013-.006h-.012l-.013-.006h-.025l-.018-.007h-.013l-.013-.006h-.05l-.013-.007h-.087l-.013.007h-.013l-.012.006h-.013v.007h-.012l-.007.006-.006.006h-.006v.007h-.007v.006c-.075.115-.025.231.19.334.207.103.597.186.673.077.075-.11-.026-.295-.473-.417zm8.873-7.409l-.006.019-.012.026-.006.02-.006.025-.013.026-.006.025-.013.026-.013.026-.018.051-.026.052-.019.058-.025.051-.025.058-.013.026-.006.026-.013.019-.012.025-.007.026-.012.02-.007.025-.006.02-.006.019-.006.013-.007.019-.006.012-.006.02v.006c-.044.231.019.514.428.81 0 0 .271-.193.371-.443.101-.232.038-.399-.056-.514-.107-.13-.346-.406-.447-.592zm-.868.861l.006.013v.078l.007.025v.032l.006.026.006.032v.032l.006.039.007.038.006.039.007.038.012.039.007.038.018.084.02.083.018.09.013.038.012.039.013.045.013.038.019.039.012.038.013.039.019.032.019.032.012.032c.259.457.63.803.97.803.302 0 .372-.186.517-.263 0 0-.076-.398-.423-.5-.421-.136-1.07-.65-1.335-1.138z" fill="#0055A5"/><path d="M67.766 26.743l.018-.013.013-.006.025-.02.013-.012.012-.007.013-.013.012-.006.013-.013.013-.012.006-.007.006-.006.006-.007.013-.006.006-.006.007-.007.006-.007.006-.006.007-.013.012-.006.006-.007.006-.012s.328.121.599.308c.264.187.529.501.674.662 0 0-.403.103-.661-.013 0 0-.095-.392-.378-.565-.063-.04-.264-.104-.453-.2zm.34-.333l.006-.007.006-.013.006-.006.007-.013.006-.013.006-.013.006-.013.013-.013.006-.013.006-.012.006-.02.007-.013.013-.013.006-.019.006-.019.006-.013.007-.019.006-.02.007-.019.005-.019.007-.019.006-.02v-.025l.007-.019v-.019l.006-.026v-.045l.006-.026v-.025l-.006-.026v-.026s.567.367.736.501c.164.142.523.515.599.637 0 0-.428-.097-.756-.206-.359-.123-.61-.29-.742-.367zm.957.622l.03.013.032.006.032.013.038.013.037.007.038.012.038.007.044.012.038.013.044.007.088.02.095.025.088.02.095.018.088.02.088.019.044.006.044.013.038.006.038.013.038.007.037.006.032.013.031.006.032.007.031.013c.284.09.492.231.769.54 0 0-.422.115-.643.192 0 0-.358-.25-.755-.398-.259-.102-.379-.379-.65-.649zm.636 2.063l-.013-.013-.013-.013-.012-.019-.013-.012-.006-.007-.006-.013-.006-.007-.007-.006v-.013l-.006-.007-.007-.013-.006-.006v-.013l-.006-.006v-.026l-.006-.006v-.077l.006-.013v-.013l.006-.02.006-.012v-.02c.05-.121.297-.263.447-.334.252-.121.933-.308 1.153-.378 0 0 .107.134.17.276.02.058-.012.109-.106.122-.19.038-.65-.052-.756.026-.12.077-.082.186-.082.289 0 0-.208-.128-.34-.096-.183.038-.29.128-.397.43zm.61-.964h-.013l-.006.007h-.013l-.006.006h-.012l-.013.006-.012.007h-.013l-.02.007-.012.006-.018.006-.013.007-.019.006-.019.006-.019.013-.025.007-.019.006-.019.013-.025.007-.018.013-.026.012-.019.007-.025.013-.025.013-.025.013-.019.012-.025.013-.025.013-.025.02-.026.012-.025.013s-.113-.045-.17-.154c-.057-.103-.29-.457-.498-.502 0 0 .177-.012.284-.05 0 0 .22.057.378.128.156.057.351.16.585.314zm-1.757-.443h.006l.007.006h.006l.007.007h.006l.006.006h.013l.006.006h.013l.005.006h.02l.006.007h.019l.013.007h.025l.012.006h.038l.013.006h.044s.605.424.674.842c.056.366-.126.54-.221.585-.088.052-.504.219-.781-.347 0 0 .46.154.592-.07.126-.232-.076-.566-.208-.656-.164-.128-.466-.218-.642-.18 0 0 .145-.141.321-.231z" fill="#0055A5"/><path d="M72.477 32.54l-.032-.116-.025-.116-.032-.122-.018-.057-.02-.058-.012-.058-.019-.064-.019-.058-.025-.057-.019-.058-.025-.058-.025-.058-.025-.058c-.265-.585-.932-2.146-2.318-2.416-.132-.032.145-.36.271-.34.126.012.371.18.485.25v-.392c.006-.057.057-.083.107-.083.056.006.39 0 .498.129.315.372.85 1.375 1.146 2.12.309.746.517.977.832.861.314-.115.504-.488 1.064-.373.195.04.409.174.573.367-.044.09-.1.206-.365.206-.259 0-.756.109-1.033.302-.278.197-.568.268-.965.306zm-5.532-4.833l-.012.045-.007.045-.012.045-.013.045-.012.044-.013.046-.019.038-.019.045-.012.046-.025.044-.02.046-.018.038-.026.045-.019.045-.05.09s.422 1.985 1.953 2.133c0 0-.032-.411-.486-.72-.453-.315-1.127-.803-1.077-1.542 0 0 .114.026.334.303.214.276.693 1.08 1.43 1.085 0 0-.107-.378-.434-.59-.328-.22-.737-.495-.926-.83-.19-.327-.39-.482-.517-.546zm-1.013 1.928l.006.026.013.031.012.032.02.032.018.039.025.038.02.046.03.044.026.045.025.045.031.045.032.051.031.052.038.051.069.097.07.103.069.096.037.051.038.045.031.046.038.044.031.046.032.038.031.039.032.038.031.033.032.025.025.033.025.019c.246.237.863.867 1.197 1.182 0 0-.938-.237-1.468-.726 0 0-.371.219-.642.219h-.019c-.27 0-.648-.219-.648-.219-.523.489-1.461.726-1.461.726.327-.315.944-.945 1.196-1.182.252-.232.832-1.067.92-1.33h.007z" fill="#0055A5"/><path d="M65.931 31.839h.038l.019-.007h.057l.038-.006.037-.007.032-.013.038-.007.031-.012.038-.006.031-.013.025-.013.032-.006.013-.007.012-.007.013-.006.012-.006.013-.007h.013l.012-.007.013-.006c-.113.232-.321.611-.517.759h-.006c-.201-.148-.41-.527-.523-.759.114.052.309.136.517.136h.012z" fill="#0055A5"/><path d="M66.733 36.272l3.665-5.243.372.276.026-1.227-1.109.43.346.257c-.176.264-2.916 4.177-3.262 4.672l-1.657-3.072-.208.315-1.474 2.281-.372-.25v1.207l1.122-.45-.378-.263c.208-.308 1.001-1.542 1.272-1.953l1.657 3.02z" fill="#0055A5"/><path d="M67.406 34.21l-.094-.142-.05-.07-.044-.07-.044-.065-.045-.071-.044-.064-.037-.065-.044-.064-.038-.057-.02-.026-.018-.032-.012-.026-.019-.026-.02-.026-.012-.025-.018-.026-.013-.02-.013-.025-.019-.02-.012-.019-.013-.019c-.088.173-.277.52-.485.9l-.265-.476.718-1.31.202.314.737 1.131-.278.399zm.755.34l.258.411.372-.25.006 1.208-1.121-.45.371-.263c-.038-.058-.094-.149-.17-.264l.284-.392zm7.376-7.987l-.025-.025-.031-.026-.025-.019-.032-.02-.031-.012-.032-.013-.031-.006-.032-.007-.031-.006h-.038l-.031.006h-.038l-.038.013-.038.006-.038.013-.037.013-.045.02-.037.018-.038.02-.044.02-.038.025-.044.026-.044.031-.044.026-.038.032-.044.032-.044.038-.044.032-.044.039-.044.039-.044.038-.044.039c-.472.437-.761.886-.485 1.195.252.276.73.038 1.203-.399.465-.436.76-.886.49-1.188z" fill="#0055A5"/><path d="M74.776 31.961l.006-.006h.006v-.007h.006v-.006h.007v-.006h.006l.006-.007h.007v-.007h.006c.245-.224.384-.565.384-.938 0-.72-.567-1.304-1.279-1.304-.699 0-1.272.585-1.272 1.304 0 .097.018.251.018.251-.05-.109-.264-.604-.308-.694a1.63 1.63 0 011.562-1.215c.65 0 1.203.38 1.468.932-.1-.655-.422-1.246-.648-1.465-.272-.263-.731-.347-.731-.347.302.046.699-.14 1.146-.558.422-.399.643-.746.655-1.035-.025.412-.012.636.101.977.158.45.573 1.285.428 2.23-.081.52-.453 1.292-1.07 1.921a.871.871 0 00-.196.463s-.913 0-1.121.019c0 0-.22-.02-.214-.161 0-.135.126-.167.227-.167.113 0 .56.006.8-.174zm-5.985.269l-.145-.083-.144-.09-.145-.096-.138-.103-.145-.109-.145-.115-.138-.122-.139-.129-.138-.134-.139-.148-.138-.148-.132-.16-.133-.174-.131-.174-.132-.187-.064-.096-.069-.102-.119-.206c.189.083.422.026.422.026.019.019.044.07.056.09.643.957 1.348 1.567 2.066 1.96l-.21.3zm.957.046l.107.038.114.039.106.032.114.032.107.032.107.032.113.026.107.026.107.025.107.02.107.019.107.019.214.038.208.033c.359.057.712.077 1.045.064 0 .058 0 .129.025.186 0 0-.056.077-.056.174a5.564 5.564 0 01-1.07-.07c-.606-.097-1.242-.219-1.884-.463l.215-.303zm4.157.289h.07l.018-.006h.202l.05.006h.045l.05.007h.044l.05.006h.044l.02.006h.024l.02.007h.018c.22.032.472.083.504.205.025.122-.057.25-.17.43-.07.11-.234.052-.328.013-.094-.038-.617-.32-.706-.417-.081-.09-.112-.225.045-.257zm-.528.36l.007-.006v-.007h.006l.013-.006h.006l.006-.006.007-.007h.006l.013-.007h.006l.013-.006h.006l.013-.006h.018l.013-.007h.019l.013-.006h.088l.013.006h.012l.013.007h.012l.013.006h.013c.144.058.661.373.698.514.032.148-.037.225-.113.257a1.11 1.11 0 01-.258.07.396.396 0 01-.315-.154c-.07-.083-.309-.378-.34-.45-.038-.057-.057-.16 0-.192zm-.07.321l.006.007.013.013.007.006.005.013.013.013.013.013.006.013.013.013.013.012.012.02.013.012.012.013.025.032.026.032.025.033.006.013.013.013.013.012.012.013.006.013.013.013.006.013.013.013.006.006.007.013.006.007.006.007v.006l.006.006c.019.038-.018.109-.081.096-.07-.006-.422-.045-.624-.186-.208-.141-.34-.41-.202-.514.139-.104.359-.053.592.211zm-.113-.79h.019l.006-.007h.019l.013-.006h.012l.013-.006h.025l.02-.007h.012l.019-.006h.044l.013-.007h.087l.013.007h.012l.013.006h.012l.007.007h.013v.006h.006l.006.006.006.007.007.006c.069.115.019.231-.19.334-.207.103-.604.186-.68.077-.075-.11.032-.295.473-.417z" fill="#0055A5"/></g><defs><clipPath id="clip0_494_6437"><rect width="87" height="43" rx="6" fill="#fff"/></clipPath></defs></svg>