<svg width="24" height="24" fill="none" xmlns="http://www.w3.org/2000/svg"><g clip-path="url(#clip0_1766_3249)"><path d="M14.98 12.202l1.363-1.363c.099.371.157.759.157 1.161 0 2.481-2.019 4.5-4.5 4.5-.402 0-.79-.058-1.161-.157l1.363-1.363a2.987 2.987 0 002.778-2.778zm8.925-.566c-.092-.166-1.4-2.459-3.958-4.402l-1.091 1.092A15.01 15.01 0 0122.368 12c-.89 1.355-4.376 6-10.368 6a11.02 11.02 0 01-2.52-.298l-1.233 1.232c1.133.348 2.379.566 3.753.566 7.851 0 11.744-6.845 11.905-7.136a.75.75 0 000-.728zM20.78 4.28l-16.5 16.5a.748.748 0 01-1.06 0 .75.75 0 010-1.06l2.099-2.1C1.925 15.572.201 12.556.095 12.364a.75.75 0 010-.729C.256 11.346 4.149 4.5 12 4.5c2.03 0 3.788.463 5.292 1.148L19.72 3.22a.75.75 0 111.06 1.06zM6.437 16.502l1.9-1.899A4.47 4.47 0 017.5 12c0-2.481 2.019-4.5 4.5-4.5.97 0 1.867.312 2.603.836l1.536-1.535A11.043 11.043 0 0012 6c-5.992 0-9.479 4.645-10.367 6 .564.855 2.186 3.02 4.804 4.503zm2.988-2.988l4.09-4.089A2.966 2.966 0 0012 9c-1.654 0-3 1.346-3 3 0 .555.162 1.068.425 1.514z" fill="#AAA49E"/></g><defs><clipPath id="clip0_1766_3249"><path fill="#fff" d="M0 0h24v24H0z"/></clipPath></defs></svg>